<svg width="3000" height="2994" viewBox="0 0 3000 2994" fill="none" xmlns="http://www.w3.org/2000/svg">
<g clip-path="url(#clip0_50_2)">
<path d="M1702.7 3000C1135.14 3000 570.686 3000 6.23701 3000C6.23701 2002.08 6.23701 1004.16 6.23701 6.23706C1006.24 6.23706 2006.24 6.23706 3006.24 6.23706C3006.24 1004.16 3006.24 2002.08 3006.24 3000C2572.77 3000 2139.29 3000 1702.7 3000ZM1183.43 2175.76C1203.07 2167.4 1225.07 2162.23 1241.76 2149.88C1261.71 2135.12 1277.09 2133.11 1300.9 2142.3C1349.99 2161.24 1399.28 2158.26 1441.31 2122.15C1460.13 2105.97 1475.48 2085.8 1493.81 2068.97C1502.15 2061.31 1513.36 2055.65 1524.25 2052.15C1536.87 2048.09 1551.31 2049.38 1563.64 2044.79C1581.99 2037.97 1592.63 2045.38 1597.48 2060.99C1604.82 2084.57 1613 2108.69 1614.83 2133.04C1619.62 2196.72 1594.03 2252.28 1563.63 2306.33C1558.45 2315.54 1560.37 2328.74 1559.01 2340.1C1571.26 2341.48 1585.22 2347.4 1595.48 2343.52C1675.67 2313.18 1750.32 2273.87 1810.24 2209.94C1878.8 2136.78 1894.18 2051.17 1866.69 1958.84C1851.85 1909.01 1824.85 1862.79 1802.28 1812.58C1809.42 1803.27 1818.82 1790.91 1828.36 1778.65C1837.91 1766.39 1847.87 1754.44 1857.2 1742.01C1976.02 1583.69 2076.53 1414.66 2155.6 1233.01C2232.16 1057.11 2275.18 875.542 2251.65 682.137C2235.09 545.988 2190.88 420.035 2114.1 306.162C2088.77 268.598 2053.37 247.422 2006.31 249.517C1910.27 253.795 1821.03 283.907 1735.35 324.34C1529.7 421.392 1386.74 581.576 1284.89 781.059C1180.92 984.72 1110.02 1199.9 1066.86 1424.3C1056.83 1476.41 1057.07 1476.21 1005.57 1485.97C988.269 1489.25 971.027 1493.34 954.168 1498.43C847.532 1530.58 775.197 1595.13 754.116 1709.09C736.822 1802.58 760.87 1890.19 790.823 1976.85C794.2 1986.62 807.032 1998.86 815.954 1999.26C823.897 1999.61 835.35 1986.56 840.261 1976.9C853.847 1950.15 862.655 1920.86 877.292 1894.79C906.123 1843.45 946.208 1803.92 1005.83 1789.74C1013.88 1787.82 1029.34 1788.11 1030.71 1791.58C1044.56 1826.67 1076.25 1853.77 1063.9 1900.38C1045.69 1969.14 1071.52 2034.82 1127.06 2061.25C1161.94 2077.84 1168.67 2102.6 1172.29 2134.03C1173.94 2148.35 1176.64 2162.55 1173.03 2177.22C1155.38 2177.13 1137.72 2176.94 1120.07 2176.96C941.706 2177.13 830.967 2314.43 870.967 2488.4C881.122 2532.57 901.558 2574.35 912.091 2618.46C919.05 2647.6 925.147 2681.47 916.927 2708.81C897.902 2772.07 869.675 2832.54 845.74 2894.36C836.116 2919.22 827.961 2944.65 819.137 2969.82C821.564 2970.86 823.99 2971.9 826.417 2972.94C830.911 2966.51 836.138 2960.48 839.786 2953.61C879.154 2879.45 916.709 2804.25 958.456 2731.46C970.31 2710.79 991.627 2691.95 1013.08 2681.14C1056.42 2659.3 1104.18 2646.27 1147.72 2624.75C1264.16 2567.22 1321.98 2450.48 1290.18 2337.6C1271.66 2271.87 1230.86 2219.85 1183.43 2175.76ZM2232.95 1112.52C2149.62 1349.87 2027.85 1566.45 1873.52 1764.21C1842.22 1804.32 1838.13 1830.82 1864.23 1875.96C1919.16 1970.97 1930.65 2073.23 1873.07 2172.61C1808.67 2283.75 1701.24 2337.87 1584.45 2375.37C1571.53 2379.52 1545.44 2367.79 1537.51 2355.59C1528.7 2342.04 1528.9 2318.09 1533.86 2301.23C1540.75 2277.8 1557.51 2257.48 1566.84 2234.53C1583.44 2193.72 1593.42 2151.39 1583.53 2106.81C1578.97 2086.25 1570.17 2075.75 1545.14 2077.22C1514.8 2078.99 1502.73 2100.93 1486.64 2118.75C1435.79 2175.04 1373.77 2197.1 1301.4 2173.3C1271.72 2163.53 1255.35 2171.13 1238.55 2191.61C1304.72 2278.3 1304.19 2278.42 1329.07 2387.61C1331.03 2396.19 1346.78 2405.82 1357.37 2407.62C1552.77 2440.98 1742.63 2421.43 1924.15 2340.48C2457.86 2102.45 2669.39 1472.31 2387.11 961.357C2360.06 912.399 2326.11 867.256 2296.21 821.648C2274.86 920.034 2254.5 1013.87 2232.95 1112.52ZM910.63 2204.06C921.261 2202.88 932.719 2203.84 942.376 2200.13C979.872 2185.7 1015.9 2166.76 1054.24 2155.47C1080.93 2147.61 1110.48 2149.51 1138.37 2147.08C1145.54 2118.4 1137.19 2102.71 1113.21 2086.49C1087.57 2069.16 1064.72 2043.9 1048.53 2017.31C1024.49 1977.84 1022.9 1932.42 1035.77 1887.89C1044.22 1858.68 1027.96 1837.29 1009.38 1823.69C1001.65 1818.02 975.25 1831.91 961.056 1842.09C911.61 1877.55 885.903 1929.61 867.73 1985.88C859.727 2010.66 846.508 2028.67 817.993 2029.62C788.057 2030.61 772.077 2012.55 763.679 1987.03C752.331 1952.55 740.435 1917.99 732.876 1882.58C713.91 1793.75 708.7 1704.76 752.362 1620.89C803.839 1522.01 892.904 1477.43 997.956 1459.78C1023.11 1455.55 1034.56 1446.44 1039.35 1420.11C1071.25 1244.81 1123.02 1075.28 1192.69 911.279C1260.98 750.548 1343.06 598.553 1470.4 475.392C1473.64 472.255 1475.47 467.658 1478.77 462.465C1170.73 465.611 775.462 665.541 612.584 1085.89C458.226 1484.25 578.933 1933.2 910.63 2204.06Z" fill="#6A64C1"/>
<path d="M1178.87 2176.8C1176.64 2162.55 1173.94 2148.35 1172.29 2134.03C1168.67 2102.6 1161.94 2077.84 1127.06 2061.25C1071.52 2034.82 1045.69 1969.14 1063.9 1900.38C1076.25 1853.77 1044.56 1826.67 1030.71 1791.58C1029.34 1788.11 1013.88 1787.82 1005.83 1789.74C946.208 1803.92 906.123 1843.45 877.292 1894.79C862.655 1920.86 853.847 1950.15 840.261 1976.9C835.35 1986.56 823.897 1999.61 815.954 1999.26C807.032 1998.86 794.2 1986.62 790.823 1976.85C760.87 1890.19 736.822 1802.58 754.116 1709.09C775.197 1595.13 847.532 1530.58 954.168 1498.43C971.027 1493.34 988.269 1489.25 1005.57 1485.97C1057.07 1476.21 1056.83 1476.41 1066.86 1424.3C1110.02 1199.9 1180.92 984.72 1284.89 781.059C1386.74 581.576 1529.7 421.392 1735.35 324.34C1821.03 283.907 1910.27 253.795 2006.31 249.517C2053.37 247.422 2088.77 268.598 2114.1 306.162C2190.88 420.035 2235.09 545.988 2251.65 682.137C2275.18 875.542 2232.16 1057.11 2155.6 1233.01C2076.53 1414.66 1976.02 1583.69 1857.2 1742.01C1847.87 1754.44 1837.91 1766.39 1828.36 1778.65C1818.82 1790.91 1809.42 1803.27 1802.28 1812.58C1824.85 1862.79 1851.85 1909.01 1866.69 1958.84C1894.18 2051.17 1878.8 2136.78 1810.24 2209.94C1750.32 2273.87 1675.67 2313.18 1595.48 2343.53C1585.22 2347.41 1571.26 2341.48 1559.01 2340.1C1560.37 2328.74 1558.45 2315.54 1563.63 2306.33C1594.03 2252.28 1619.62 2196.72 1614.83 2133.04C1613 2108.69 1604.82 2084.57 1597.48 2060.99C1592.63 2045.38 1581.99 2037.97 1563.64 2044.79C1551.31 2049.38 1536.87 2048.09 1524.25 2052.15C1513.36 2055.65 1502.15 2061.31 1493.81 2068.97C1475.48 2085.8 1460.13 2105.97 1441.31 2122.15C1399.28 2158.26 1349.99 2161.24 1300.9 2142.3C1277.09 2133.11 1261.71 2135.12 1241.76 2149.88C1225.07 2162.23 1203.07 2167.4 1181.1 2176.22C1178.77 2176.68 1178.87 2176.8 1178.87 2176.8ZM1687.75 2252.89C1715.11 2232.51 1744.81 2214.58 1769.44 2191.31C1870.33 2095.96 1851.79 1956.97 1763.06 1853.14C1750.35 1868.32 1737.8 1883.31 1721.75 1900.78C1691.72 1932.3 1661.06 1963.27 1632.2 1995.83C1626.63 2002.12 1623.31 2017.44 1627.06 2023.86C1657.45 2075.85 1664.23 2131.41 1653.72 2189.21C1648.13 2220.01 1637.94 2249.99 1628.46 2285.47C1649.59 2273.65 1666.51 2264.19 1687.75 2252.89ZM1601.75 537.803C1831.47 557.044 2022.96 653.499 2178.09 823.296C2187.53 833.621 2196.58 844.296 2209.61 859.15C2211.54 848.019 2212.84 843.34 2213.09 838.605C2220.59 698.363 2199.25 562.826 2137.79 436.19C2115.24 389.734 2080.94 348.979 2048.96 301.825C2022.57 299.627 1995.36 292.134 1969.93 296.087C1798.4 322.748 1652.2 401.109 1526.81 519.845C1522.84 523.601 1520.43 528.995 1515.43 536.364C1545.23 536.364 1570.97 536.364 1601.75 537.803ZM2170.04 874.984C2135.16 840.427 2100.28 805.871 2063.15 767.915C1897.7 630.2 1708.08 565.514 1492.67 580.739C1479.28 581.686 1462.58 589.902 1454.35 600.249C1425.33 636.723 1395.99 673.664 1372.73 713.873C1187.91 1033.3 1093.73 1379.76 1069.52 1746.46C1067.16 1782.22 1081.82 1811.12 1118.35 1831.4C1140.58 1840.94 1162.82 1850.49 1180.65 1858.14C1204.14 1816.37 1225.63 1778.14 1250.93 1738.15C1290.62 1692.58 1339.17 1660.01 1396 1639.79C1431.81 1627.04 1441.24 1631.08 1453.67 1667.72C1461.95 1692.16 1467.56 1717.5 1473.99 1747.99C1485.56 1827.14 1466.62 1899.85 1423.96 1970.64C1445.87 1979.6 1465.69 1987.71 1488.75 1998.98C1530.4 2017.14 1564.16 2005.53 1595.63 1974.56C1742.18 1830.3 1868.27 1669.8 1973.11 1493.28C2072.4 1326.11 2159.22 1153.26 2198.62 960.056C2206.01 923.799 2195.8 900.861 2170.04 874.984ZM1243.89 1821.61C1203.01 1915.52 1201.61 2013.39 1211.34 2114.8C1404.49 1994.13 1485.7 1825.34 1409.38 1677.63C1338 1704.53 1282.15 1749.22 1243.89 1821.61ZM865.231 1835.35C906.971 1782.74 960.431 1749.75 1027.14 1741.03C1034.89 1668.99 1042.38 1599.26 1050.26 1526C958.145 1533.78 876.457 1558.34 825.816 1637.64C770.363 1724.47 787.929 1817.09 814.873 1913.61C832.745 1885.54 847.605 1862.2 865.231 1835.35ZM1166.17 2014.2C1168.88 1983.2 1172.4 1952.23 1173.74 1921.17C1174.1 1912.87 1170.19 1900.42 1164.05 1896.59C1148.52 1886.9 1130.61 1881.02 1105.51 1870.06C1105.51 1907.26 1099.86 1940.34 1107.4 1970.07C1112.85 1991.57 1135.62 2008.79 1151.5 2027.2C1152.29 2028.11 1161.07 2022.13 1166.17 2014.2ZM1311.59 2095.23C1348.85 2131.48 1424.65 2104.94 1460.48 2031.19C1440.22 2022.02 1420.01 2012.89 1404.76 2005.99C1372.36 2036.37 1343.1 2063.81 1311.59 2095.23Z" fill="#35229E"/>
<path d="M1178.69 2176.64C1230.86 2219.85 1271.66 2271.87 1290.18 2337.6C1321.98 2450.48 1264.16 2567.22 1147.72 2624.75C1104.18 2646.27 1056.42 2659.3 1013.08 2681.14C991.627 2691.95 970.31 2710.79 958.456 2731.46C916.709 2804.25 879.154 2879.45 839.786 2953.61C836.138 2960.48 830.911 2966.51 826.417 2972.94C823.99 2971.9 821.564 2970.86 819.137 2969.82C827.961 2944.65 836.116 2919.22 845.74 2894.36C869.675 2832.54 897.902 2772.07 916.927 2708.81C925.147 2681.47 919.05 2647.6 912.091 2618.46C901.558 2574.35 881.122 2532.57 870.967 2488.4C830.967 2314.43 941.706 2177.13 1120.07 2176.96C1137.72 2176.94 1155.38 2177.13 1175.95 2177.01C1178.87 2176.8 1178.77 2176.68 1178.69 2176.64ZM983.999 2259.12C912.096 2316.89 891.859 2393.43 911.933 2479.44C925.497 2537.55 948.771 2593.4 968.406 2652.38C1023.2 2629.87 1077.36 2611.67 1127.8 2586.12C1276.87 2510.61 1299.03 2349.49 1177.74 2235.05C1170.74 2228.44 1160.61 2222.11 1151.45 2221.33C1093.5 2216.39 1037.44 2222.26 983.999 2259.12Z" fill="#34209F"/>
<path d="M2233.54 1110.11C2254.5 1013.87 2274.86 920.034 2296.21 821.648C2326.11 867.256 2360.06 912.399 2387.11 961.357C2669.39 1472.31 2457.86 2102.45 1924.15 2340.48C1742.63 2421.43 1552.77 2440.98 1357.37 2407.62C1346.78 2405.82 1331.03 2396.19 1329.07 2387.61C1304.19 2278.42 1304.72 2278.3 1238.55 2191.61C1255.35 2171.13 1271.72 2163.53 1301.4 2173.3C1373.77 2197.1 1435.79 2175.04 1486.64 2118.75C1502.73 2100.93 1514.8 2078.99 1545.14 2077.22C1570.17 2075.75 1578.97 2086.25 1583.53 2106.81C1593.42 2151.39 1583.44 2193.72 1566.84 2234.53C1557.51 2257.48 1540.75 2277.8 1533.86 2301.23C1528.9 2318.09 1528.7 2342.04 1537.51 2355.59C1545.44 2367.79 1571.53 2379.52 1584.45 2375.37C1701.24 2337.87 1808.67 2283.75 1873.07 2172.61C1930.65 2073.23 1919.16 1970.97 1864.23 1875.96C1838.13 1830.82 1842.22 1804.32 1873.52 1764.21C2027.85 1566.45 2149.62 1349.87 2233.54 1110.11ZM2087.51 1913.67C2092.28 1910.87 2097.04 1908.07 2103.25 1904.43C2059.83 1884.87 2059.83 1884.87 2030.56 1834.72C2026.83 1873.35 2013.42 1899.96 1970.24 1904.32C2015.97 1907.56 2026.17 1937.62 2030.97 1977.67C2050.11 1950.64 2040.87 1909.82 2087.51 1913.67ZM2279.36 1376.56C2290.59 1386.32 2301.81 1396.07 2311.98 1404.9C2321.68 1394.56 2332.89 1382.62 2342.27 1372.62C2331.77 1361.14 2320.73 1349.06 2311.74 1339.23C2300.39 1350.45 2288.51 1362.19 2279.36 1376.56Z" fill="#36EC65"/>
<path d="M2085.26 1914C2040.87 1909.82 2050.11 1950.64 2030.97 1977.67C2026.17 1937.62 2015.97 1907.56 1970.24 1904.32C2013.42 1899.96 2026.83 1873.35 2030.56 1834.72C2059.83 1884.87 2059.83 1884.87 2103.25 1904.43C2097.04 1908.07 2092.28 1910.87 2085.26 1914Z" fill="#3BE274"/>
<path d="M2277.99 1375.25C2288.51 1362.19 2300.39 1350.45 2311.74 1339.23C2320.73 1349.06 2331.77 1361.14 2342.27 1372.62C2332.89 1382.62 2321.68 1394.56 2311.98 1404.9C2301.81 1396.07 2290.59 1386.32 2277.99 1375.25Z" fill="#3AE373"/>
<path d="M908.995 2202.65C578.933 1933.2 458.226 1484.25 612.584 1085.89C775.462 665.541 1170.73 465.611 1478.77 462.465C1475.47 467.658 1473.64 472.255 1470.4 475.392C1343.06 598.553 1260.98 750.548 1192.69 911.279C1123.02 1075.28 1071.25 1244.81 1039.35 1420.11C1034.56 1446.44 1023.11 1455.55 997.956 1459.78C892.905 1477.43 803.839 1522.01 752.362 1620.89C708.7 1704.76 713.91 1793.75 732.876 1882.58C740.435 1917.99 752.331 1952.55 763.679 1987.03C772.077 2012.55 788.057 2030.61 817.993 2029.62C846.508 2028.67 859.727 2010.66 867.73 1985.88C885.903 1929.61 911.61 1877.55 961.056 1842.09C975.25 1831.91 1001.65 1818.02 1009.38 1823.69C1027.96 1837.29 1044.22 1858.68 1035.77 1887.89C1022.9 1932.42 1024.49 1977.84 1048.53 2017.31C1064.72 2043.9 1087.57 2069.16 1113.21 2086.49C1137.19 2102.71 1145.54 2118.4 1138.37 2147.08C1110.48 2149.51 1080.93 2147.61 1054.24 2155.47C1015.9 2166.76 979.872 2185.7 942.376 2200.13C932.719 2203.84 921.261 2202.88 908.995 2202.65ZM877.61 1233.98C867.756 1217.66 857.903 1201.35 843.977 1178.29C841.685 1219.15 822.957 1241.29 780.839 1246.91C827.605 1247.56 839.608 1277.97 850.495 1313.61C850.562 1269.78 878.405 1255.65 914.121 1248.74C912.999 1246.16 911.878 1243.59 910.757 1241.02C901.282 1238.89 891.807 1236.75 877.61 1233.98ZM1154.68 648.911C1146.93 658.555 1139.18 668.199 1134.33 674.236C1143.75 684.262 1154.68 695.892 1164.41 706.24C1174.37 695.681 1185.54 683.847 1193.71 675.188C1186 664.211 1178.99 652.979 1170.43 643.086C1168.73 641.124 1161.1 644.296 1154.68 648.911Z" fill="#36EC65"/>
<path d="M879.971 1234.3C891.807 1236.75 901.282 1238.89 910.757 1241.02C911.878 1243.59 912.999 1246.16 914.121 1248.74C878.405 1255.65 850.562 1269.78 850.495 1313.61C839.608 1277.97 827.605 1247.56 780.839 1246.91C822.957 1241.29 841.685 1219.15 843.977 1178.29C857.903 1201.35 867.756 1217.66 879.971 1234.3Z" fill="#3BE274"/>
<path d="M1155.44 647.006C1161.1 644.296 1168.73 641.124 1170.43 643.086C1178.99 652.979 1186 664.211 1193.71 675.188C1185.54 683.847 1174.37 695.681 1164.41 706.24C1154.68 695.892 1143.75 684.262 1134.33 674.236C1139.18 668.199 1146.93 658.555 1155.44 647.006Z" fill="#3AE373"/>
<path d="M1115.42 1828C1081.82 1811.12 1067.16 1782.22 1069.52 1746.46C1093.73 1379.76 1187.91 1033.3 1372.73 713.872C1395.99 673.664 1425.33 636.723 1454.35 600.249C1462.58 589.902 1479.28 581.686 1492.67 580.739C1708.08 565.514 1897.7 630.2 2064.1 772.322C2046.08 836.983 2026.02 896.925 2008.81 957.677C2003.55 976.235 2004.45 997.109 2005.51 1016.76C2007.66 1056.72 2015.54 1096.66 2014.53 1136.44C2010.94 1277.43 1893.67 1408.06 1757.09 1441.75C1742.4 1445.38 1727.38 1456.44 1717.27 1468.17C1692.25 1497.19 1671.86 1530.29 1646.22 1558.7C1590.05 1620.95 1531.78 1681.31 1474.37 1742.44C1467.56 1717.5 1461.95 1692.16 1453.67 1667.72C1441.24 1631.08 1431.81 1627.04 1396 1639.79C1339.17 1660.01 1290.62 1692.58 1247.07 1738.05C1204.89 1720.81 1166.57 1703.67 1125.8 1685.42C1124.36 1697.34 1123.17 1704.37 1122.71 1711.46C1120.18 1750.3 1117.83 1789.15 1115.42 1828ZM1374.33 1159.28C1377.66 1173.36 1379.79 1187.86 1384.51 1201.46C1433.63 1342.98 1562.25 1424.91 1711.11 1410C1845.8 1396.51 1955.31 1286.13 1975.48 1143.53C2004.95 935.128 1800.47 756.014 1597.89 812.789C1442.53 856.332 1356.18 987.429 1374.33 1159.28Z" fill="#FCFCFD"/>
<path d="M1474.18 1745.22C1531.78 1681.31 1590.05 1620.95 1646.22 1558.7C1671.86 1530.29 1692.25 1497.19 1717.27 1468.17C1727.38 1456.44 1742.4 1445.38 1757.09 1441.75C1893.67 1408.06 2010.94 1277.43 2014.53 1136.44C2015.54 1096.66 2007.66 1056.72 2005.51 1016.76C2004.45 997.109 2003.55 976.235 2008.81 957.677C2026.02 896.925 2046.08 836.983 2065.22 774.022C2100.28 805.871 2135.16 840.427 2169.09 878.73C2164.81 893.284 2160.93 903.955 2158.28 914.924C2146.64 963.197 2138.59 1012.6 2123.36 1059.69C2067.16 1233.37 1983.22 1393.67 1884.35 1546.71C1783.81 1702.33 1668.76 1845.9 1534.14 1973.28C1521.84 1984.93 1501.9 1988.5 1485.5 1995.82C1465.69 1987.71 1445.87 1979.6 1423.96 1970.64C1466.62 1899.85 1485.56 1827.14 1474.18 1745.22Z" fill="#DFDFE5"/>
<path d="M2052.01 305.624C2080.94 348.979 2115.24 389.734 2137.79 436.19C2199.25 562.826 2220.59 698.363 2213.09 838.605C2212.84 843.34 2211.54 848.019 2209.61 859.15C2196.58 844.296 2187.53 833.621 2178.09 823.295C2022.96 653.499 1831.47 557.044 1599.66 534.986C1603.74 524.05 1608.7 514.518 1616.27 508.032C1699.58 436.622 1792.96 381.823 1896.74 346.593C1947.31 329.428 2000.18 319.066 2052.01 305.624Z" fill="#FCFBFC"/>
<path d="M1487.13 1997.4C1501.9 1988.5 1521.84 1984.93 1534.14 1973.28C1668.76 1845.9 1783.81 1702.33 1884.35 1546.71C1983.22 1393.67 2067.16 1233.37 2123.36 1059.69C2138.59 1012.6 2146.64 963.196 2158.28 914.924C2160.93 903.955 2164.81 893.284 2169.75 880.74C2195.8 900.861 2206.01 923.799 2198.62 960.056C2159.22 1153.26 2072.4 1326.11 1973.11 1493.28C1868.27 1669.8 1742.18 1830.3 1595.63 1974.56C1564.16 2005.53 1530.4 2017.14 1487.13 1997.4Z" fill="#F8F8FA"/>
<path d="M1245.07 1819.58C1282.15 1749.22 1338 1704.53 1409.38 1677.63C1485.7 1825.34 1404.49 1994.13 1211.34 2114.8C1201.61 2013.39 1203.01 1915.52 1245.07 1819.58Z" fill="#FAF8F9"/>
<path d="M863.848 1837.11C847.605 1862.2 832.745 1885.54 814.873 1913.61C787.929 1817.09 770.363 1724.47 825.816 1637.64C876.457 1558.34 958.145 1533.78 1050.26 1526C1042.38 1599.25 1034.89 1668.99 1027.14 1741.03C960.431 1749.75 906.971 1782.74 863.848 1837.11Z" fill="#FAF8FA"/>
<path d="M1683.43 2254.73C1666.51 2264.19 1649.59 2273.65 1628.46 2285.47C1637.94 2249.99 1648.13 2220.01 1653.72 2189.2C1664.23 2131.41 1657.45 2075.85 1627.06 2023.86C1623.31 2017.44 1626.63 2002.12 1632.2 1995.83C1661.06 1963.27 1691.72 1932.3 1724.65 1901.76C1733.59 1914.72 1739.96 1926.55 1745.65 1938.7C1790.27 2034.03 1782.68 2159.04 1700.55 2226.43C1692.51 2233.02 1689.03 2245.16 1683.43 2254.73Z" fill="#E6DFEA"/>
<path d="M2050.49 303.724C2000.18 319.066 1947.31 329.429 1896.74 346.593C1792.96 381.823 1699.58 436.622 1616.27 508.032C1608.7 514.518 1603.74 524.05 1597.14 534.266C1570.97 536.364 1545.23 536.364 1515.43 536.364C1520.43 528.995 1522.84 523.601 1526.81 519.845C1652.2 401.109 1798.4 322.748 1969.93 296.087C1995.36 292.134 2022.57 299.627 2050.49 303.724Z" fill="#DFDFE5"/>
<path d="M1685.59 2253.81C1689.03 2245.16 1692.51 2233.02 1700.55 2226.43C1782.68 2159.04 1790.27 2034.03 1745.65 1938.7C1739.96 1926.55 1733.59 1914.72 1726.4 1900.51C1737.8 1883.31 1750.35 1868.32 1763.06 1853.14C1851.79 1956.97 1870.33 2095.96 1769.44 2191.31C1744.81 2214.58 1715.11 2232.51 1685.59 2253.81Z" fill="#F7EBEE"/>
<path d="M1116.89 1829.7C1117.83 1789.15 1120.18 1750.3 1122.71 1711.46C1123.17 1704.37 1124.36 1697.34 1125.8 1685.42C1166.57 1703.67 1204.89 1720.81 1245.17 1738.93C1225.63 1778.14 1204.14 1816.37 1180.65 1858.14C1162.82 1850.49 1140.58 1840.94 1116.89 1829.7Z" fill="#DDDDE4"/>
<path d="M1166.15 2016.78C1161.07 2022.13 1152.29 2028.11 1151.5 2027.2C1135.62 2008.79 1112.85 1991.57 1107.4 1970.07C1099.86 1940.34 1105.51 1907.26 1105.51 1870.06C1130.61 1881.02 1148.52 1886.9 1164.05 1896.59C1170.19 1900.42 1174.1 1912.87 1173.74 1921.17C1172.4 1952.23 1168.88 1983.2 1166.15 2016.78Z" fill="#D6D6E0"/>
<path d="M1312.72 2093.24C1343.1 2063.81 1372.36 2036.37 1404.76 2005.99C1420.01 2012.89 1440.22 2022.02 1460.48 2031.19C1424.65 2104.94 1348.85 2131.48 1312.72 2093.24Z" fill="#D6D7E2"/>
<path d="M985.896 2257.89C1037.44 2222.26 1093.5 2216.39 1151.45 2221.33C1160.61 2222.11 1170.74 2228.44 1177.74 2235.05C1299.03 2349.49 1276.87 2510.61 1127.8 2586.12C1077.36 2611.67 1023.2 2629.87 968.406 2652.38C948.771 2593.4 925.497 2537.55 911.933 2479.44C891.859 2393.43 912.096 2316.89 985.896 2257.89ZM1172.66 2460.42C1226.09 2402.49 1227.39 2320.85 1174.56 2263.82C1165.91 2254.49 1153.18 2245.5 1141.08 2243.34C1060.76 2228.99 983.226 2295.13 978.739 2377.1C975.908 2428.83 992.296 2475.25 1011.05 2521.29C1013.84 2528.14 1029.62 2535.93 1036.53 2533.84C1085.19 2519.11 1133.98 2503.53 1172.66 2460.42Z" fill="#F9EDEF"/>
<path d="M1373.81 1156.52C1356.18 987.429 1442.53 856.332 1597.89 812.789C1800.47 756.014 2004.95 935.128 1975.48 1143.53C1955.31 1286.13 1845.8 1396.51 1711.11 1410C1562.25 1424.91 1433.63 1342.98 1384.51 1201.46C1379.79 1187.86 1377.66 1173.36 1373.81 1156.52ZM1826.09 894.166C1731.16 821.486 1589.72 828.23 1499.99 909.714C1421.75 980.751 1389.45 1089.46 1422.26 1178.06C1422.9 1186.22 1421.29 1195.43 1424.52 1202.4C1501.78 1369.13 1660.49 1398.82 1771.34 1352.46C1869.9 1311.26 1927.62 1235.47 1936.52 1130.27C1944.57 1035.13 1912.55 952.844 1826.09 894.166Z" fill="#36249E"/>
<path d="M1171.08 2462C1133.98 2503.53 1085.19 2519.11 1036.53 2533.84C1029.62 2535.93 1013.84 2528.14 1011.05 2521.29C992.296 2475.25 975.908 2428.83 978.739 2377.1C983.227 2295.13 1060.76 2228.99 1141.08 2243.34C1153.18 2245.5 1165.91 2254.49 1174.56 2263.82C1227.39 2320.85 1226.09 2402.49 1171.08 2462ZM1101.61 2262.44C1053.79 2286.69 1034.93 2369.99 1069.32 2409.51C1073.86 2414.73 1088.11 2418.33 1093.11 2415.17C1119.71 2398.37 1149.42 2383.07 1169.12 2359.71C1188.88 2336.28 1181.96 2304.81 1166.65 2277.63C1152.08 2251.77 1129.12 2256.67 1101.61 2262.44Z" fill="#E6E6E9"/>
<path d="M1828.01 898.062C1912.55 952.844 1944.57 1035.13 1936.52 1130.27C1927.62 1235.47 1869.9 1311.26 1771.34 1352.46C1660.49 1398.82 1501.78 1369.13 1424.52 1202.4C1421.29 1195.43 1422.9 1186.22 1422.68 1172.91C1425.55 992.536 1559.17 879.356 1690.88 878.594C1736.55 878.33 1782.3 891.194 1828.01 898.062ZM1483.82 1129.71C1485.72 1138.82 1487.11 1148.07 1489.61 1157.01C1510.56 1231.98 1560.27 1279.19 1635.22 1294.35C1712.77 1310.04 1779.75 1285.32 1827.2 1220.69C1873.57 1157.52 1878.76 1088.43 1842.55 1018.51C1800.47 937.254 1709.4 898.73 1620.96 922.644C1534.7 945.967 1479.53 1026.78 1483.82 1129.71Z" fill="#D9DDF0"/>
<path d="M1827.05 896.114C1782.3 891.194 1736.55 878.33 1690.88 878.594C1559.17 879.356 1425.55 992.536 1422.41 1170.44C1389.45 1089.46 1421.75 980.751 1499.99 909.713C1589.72 828.23 1731.16 821.486 1827.05 896.114Z" fill="#6984D1"/>
<path d="M1103.96 2261.54C1129.12 2256.67 1152.08 2251.77 1166.65 2277.63C1181.96 2304.81 1188.88 2336.28 1169.12 2359.71C1149.42 2383.07 1119.71 2398.37 1093.11 2415.17C1088.11 2418.33 1073.86 2414.73 1069.32 2409.51C1034.93 2369.99 1053.79 2286.69 1103.96 2261.54Z" fill="#CECDD0"/>
<path d="M1483.62 1126.9C1479.53 1026.78 1534.7 945.967 1620.96 922.644C1709.4 898.73 1800.47 937.254 1842.55 1018.51C1878.76 1088.43 1873.57 1157.52 1827.2 1220.69C1779.75 1285.32 1712.77 1310.04 1635.22 1294.35C1560.27 1279.19 1510.56 1231.98 1489.61 1157.01C1487.11 1148.07 1485.72 1138.82 1483.62 1126.9ZM1790.49 1011.73C1764.94 978.86 1730.26 961.049 1689.95 956.933C1634.73 951.296 1587.54 970.433 1554.2 1015.25C1521.63 1059.05 1509.46 1107.49 1534.86 1164.47C1559.36 1224.83 1606.37 1255.84 1669.29 1258.06C1731.24 1260.25 1780.06 1231.69 1808.2 1175.56C1836.11 1119.91 1832.23 1065.48 1790.49 1011.73Z" fill="#36249E"/>
<path d="M1791.84 1015.81C1832.23 1065.48 1836.11 1119.91 1808.2 1175.56C1780.06 1231.69 1731.24 1260.25 1669.29 1258.06C1606.37 1255.84 1559.36 1224.83 1535.96 1160.36C1560.05 1059.29 1605.41 1012.79 1698.09 1002C1728.4 998.471 1760.54 1010.76 1791.84 1015.81Z" fill="#E7EDF7"/>
<path d="M1791.16 1013.77C1760.54 1010.76 1728.4 998.471 1698.09 1002C1605.41 1012.79 1560.05 1059.29 1535.78 1158.14C1509.46 1107.49 1521.63 1059.05 1554.2 1015.25C1587.54 970.433 1634.73 951.295 1689.95 956.933C1730.26 961.049 1764.94 978.86 1791.16 1013.77Z" fill="#D8D9EB"/>
</g>
<defs>
<clipPath id="clip0_50_2">
<rect width="3000" height="2993.76" fill="white"/>
</clipPath>
</defs>
</svg>
