<svg width="22" height="17" viewBox="0 0 22 17" fill="none" xmlns="http://www.w3.org/2000/svg">
<path d="M11 4.33333C11 3.44928 10.5786 2.60143 9.82843 1.97631C9.07828 1.35119 8.06087 1 7 1H1V13.5H8C8.79565 13.5 9.55871 13.7634 10.1213 14.2322C10.6839 14.7011 11 15.337 11 16M11 4.33333V16M11 4.33333C11 3.44928 11.4214 2.60143 12.1716 1.97631C12.9217 1.35119 13.9391 1 15 1H21V13.5H14C13.2044 13.5 12.4413 13.7634 11.8787 14.2322C11.3161 14.7011 11 15.337 11 16" stroke="white" stroke-width="2" stroke-linecap="round" stroke-linejoin="round"/>
</svg>
