<svg width="23" height="25" viewBox="0 0 23 25" fill="none" xmlns="http://www.w3.org/2000/svg">
<path d="M13.6722 22.6111C13.4769 22.9479 13.1965 23.2274 12.8591 23.4217C12.5218 23.616 12.1393 23.7183 11.75 23.7183C11.3607 23.7183 10.9782 23.616 10.6409 23.4217C10.3035 23.2274 10.0231 22.9479 9.82778 22.6111M18.4167 8.16667C18.4167 6.39856 17.7143 4.70286 16.464 3.45262C15.2138 2.20238 13.5181 1.5 11.75 1.5C9.98189 1.5 8.2862 2.20238 7.03595 3.45262C5.78571 4.70286 5.08333 6.39856 5.08333 8.16667C5.08333 15.9444 1.75 18.1667 1.75 18.1667H21.75C21.75 18.1667 18.4167 15.9444 18.4167 8.16667Z" stroke="black" stroke-width="2.5" stroke-linecap="round" stroke-linejoin="round"/>
</svg>
