<svg width="22" height="19" viewBox="0 0 22 19" fill="none" xmlns="http://www.w3.org/2000/svg">
<path d="M15.5455 17.3636V15.5455C15.5455 14.581 15.1623 13.6561 14.4804 12.9742C13.7984 12.2922 12.8735 11.9091 11.9091 11.9091H4.63636C3.67194 11.9091 2.74702 12.2922 2.06507 12.9742C1.38312 13.6561 1 14.581 1 15.5455V17.3636M21 17.3636V15.5455C20.9994 14.7398 20.7312 13.9571 20.2376 13.3203C19.744 12.6835 19.0528 12.2287 18.2727 12.0273M14.6364 1.11818C15.4186 1.31846 16.1119 1.77336 16.6069 2.41119C17.102 3.04902 17.3708 3.83348 17.3708 4.64091C17.3708 5.44834 17.102 6.2328 16.6069 6.87063C16.1119 7.50845 15.4186 7.96336 14.6364 8.16364M11.9091 4.63636C11.9091 6.64467 10.281 8.27273 8.27273 8.27273C6.26442 8.27273 4.63636 6.64467 4.63636 4.63636C4.63636 2.62806 6.26442 1 8.27273 1C10.281 1 11.9091 2.62806 11.9091 4.63636Z" stroke="white" stroke-width="2" stroke-linecap="round" stroke-linejoin="round"/>
</svg>
