<svg width="330" height="330" viewBox="0 0 330 330" fill="none" xmlns="http://www.w3.org/2000/svg">
<g opacity="0.9">
<path d="M279.926 48.7212H114.913C110.965 48.7212 107.765 51.9214 107.765 55.869V142.54C107.765 146.488 110.965 149.688 114.913 149.688H279.926C283.873 149.688 287.074 146.488 287.074 142.54V55.869C287.074 51.9214 283.873 48.7212 279.926 48.7212Z" fill="#F5F5F5"/>
<path d="M279.926 150.348H114.926C112.857 150.35 110.871 149.531 109.405 148.071C107.939 146.611 107.112 144.629 107.105 142.56V55.8689C107.107 53.7987 107.93 51.8137 109.394 50.3499C110.857 48.886 112.842 48.0628 114.913 48.0611H279.913C280.941 48.0576 281.96 48.2569 282.911 48.6476C283.862 49.0382 284.726 49.6126 285.455 50.3378C286.184 51.063 286.763 51.9248 287.158 52.8739C287.554 53.8229 287.758 54.8407 287.76 55.8689V142.56C287.751 144.631 286.922 146.614 285.453 148.074C283.984 149.533 281.997 150.351 279.926 150.348ZM114.926 49.3679C113.206 49.3696 111.556 50.0537 110.34 51.27C109.124 52.4864 108.44 54.1355 108.438 55.8557V142.56C108.44 144.28 109.124 145.929 110.34 147.146C111.556 148.362 113.206 149.046 114.926 149.048H279.926C280.78 149.05 281.626 148.884 282.416 148.56C283.205 148.235 283.923 147.757 284.528 147.155C285.134 146.552 285.614 145.836 285.942 145.048C286.27 144.259 286.439 143.414 286.44 142.56V55.8689C286.438 54.1487 285.754 52.4996 284.538 51.2832C283.322 50.0669 281.672 49.3828 279.952 49.3811L114.926 49.3679Z" fill="#E0E0E0"/>
<path d="M107.323 110.669H135.703V125.4H161.561V142.679H249.341V115.289H267.458V79.6091H286.638V139.669C286.638 142.284 285.599 144.792 283.75 146.641C281.901 148.491 279.393 149.53 276.778 149.53H118.061C116.65 149.53 115.254 149.253 113.95 148.714C112.647 148.175 111.463 147.384 110.466 146.386C109.469 145.389 108.678 144.205 108.138 142.902C107.599 141.598 107.322 140.202 107.323 138.791V110.669Z" fill="#E0E0E0"/>
<path d="M117.48 163.891C117.48 164.907 117.249 182.114 116.866 211.272V211.325H116.82H32.0892H32.0232V152.15H32.0892H79.2132H79.2528V152.196C79.4081 153.828 79.9833 155.393 80.9226 156.737C81.8055 158.023 82.912 159.141 84.1896 160.037C86.5692 161.607 89.2799 162.605 92.1096 162.954C94.5693 163.279 97.047 163.448 99.528 163.462L105.791 163.614L117.454 163.904L105.798 163.68L99.5478 163.541C97.0649 163.532 94.585 163.367 92.1228 163.046C89.2743 162.704 86.5446 161.703 84.15 160.122C82.8605 159.23 81.7426 158.112 80.85 156.822C79.8966 155.455 79.3144 153.863 79.1604 152.202L79.2132 152.249H32.0892L32.1552 152.183V211.246L32.0892 211.173L116.82 211.2L116.767 211.253C117.209 182.114 117.48 164.907 117.48 163.891Z" fill="#EBEBEB"/>
<path d="M171.145 289.337C171.145 289.337 171.145 289.021 171.145 288.42C171.145 287.819 171.145 286.928 171.145 285.78C171.145 283.45 171.145 280.031 171.145 275.642C171.145 266.878 171.105 254.239 171.072 238.729L171.204 238.861L84.81 238.9L84.9816 238.729C84.9816 256.648 84.9816 273.768 84.9816 289.351L84.8232 289.192L146.975 289.265L164.795 289.311H169.554H170.782H171.204H170.801H169.594H164.868L147.048 289.351L84.7902 289.43H84.6252V289.271C84.6252 273.689 84.6252 256.568 84.6252 238.649V238.478H84.8034L171.197 238.517H171.336V238.649C171.336 254.192 171.277 266.858 171.263 275.649C171.263 280.025 171.263 283.43 171.23 285.754C171.23 286.902 171.23 287.78 171.23 288.394C171.23 289.007 171.145 289.337 171.145 289.337Z" fill="#E0E0E0"/>
<path d="M167.303 241.778C167.303 241.83 166.901 241.844 166.643 242.325C166.564 242.454 166.515 242.6 166.499 242.75C166.483 242.901 166.5 243.054 166.551 243.197C166.636 243.35 166.763 243.477 166.917 243.563C167.07 243.648 167.245 243.689 167.42 243.681C167.596 243.673 167.766 243.616 167.911 243.516C168.056 243.417 168.17 243.278 168.241 243.117C168.275 242.97 168.277 242.817 168.247 242.669C168.216 242.52 168.153 242.381 168.062 242.259C167.874 242.027 167.618 241.858 167.33 241.778C167.33 241.778 167.422 241.718 167.6 241.738C167.858 241.778 168.092 241.909 168.26 242.108C168.393 242.254 168.488 242.429 168.539 242.62C168.589 242.811 168.593 243.011 168.551 243.203C168.47 243.436 168.321 243.64 168.123 243.788C167.926 243.935 167.688 244.021 167.441 244.032C167.195 244.043 166.951 243.98 166.74 243.852C166.53 243.723 166.363 243.534 166.261 243.309C166.2 243.122 166.186 242.923 166.218 242.729C166.25 242.535 166.328 242.351 166.445 242.193C166.592 241.982 166.81 241.83 167.059 241.764C167.204 241.725 167.303 241.758 167.303 241.778Z" fill="#E0E0E0"/>
<path d="M88.44 241.778C88.44 241.83 88.0374 241.844 87.78 242.325C87.7006 242.454 87.6511 242.6 87.6351 242.75C87.6191 242.901 87.6371 243.054 87.6876 243.197C87.7637 243.359 87.8886 243.493 88.0448 243.581C88.201 243.668 88.3808 243.705 88.5588 243.685C88.7377 243.689 88.9135 243.637 89.0605 243.535C89.2076 243.433 89.3185 243.286 89.3772 243.117C89.4139 242.97 89.4169 242.817 89.386 242.668C89.3552 242.519 89.2912 242.38 89.199 242.259C89.0118 242.025 88.7553 241.857 88.4664 241.778C88.4664 241.778 88.5588 241.718 88.737 241.738C88.9943 241.778 89.2286 241.909 89.397 242.108C89.5301 242.253 89.6265 242.429 89.6781 242.619C89.7298 242.81 89.7352 243.01 89.694 243.203C89.6117 243.436 89.4619 243.639 89.2636 243.786C89.0654 243.933 88.8278 244.018 88.5811 244.029C88.3345 244.04 88.0901 243.978 87.8792 243.85C87.6683 243.721 87.5005 243.533 87.3972 243.309C87.3369 243.122 87.3222 242.923 87.3544 242.729C87.3865 242.535 87.4646 242.351 87.582 242.193C87.7302 241.98 87.9506 241.828 88.2024 241.764C88.341 241.725 88.44 241.758 88.44 241.778Z" fill="#E0E0E0"/>
<path d="M167.402 284.658C167.402 284.717 167 284.731 166.742 285.212C166.663 285.341 166.614 285.487 166.598 285.637C166.582 285.788 166.599 285.941 166.65 286.083C166.726 286.246 166.851 286.38 167.007 286.468C167.163 286.555 167.343 286.592 167.521 286.572C167.699 286.572 167.873 286.518 168.02 286.417C168.166 286.315 168.278 286.171 168.34 286.004C168.375 285.857 168.377 285.704 168.346 285.555C168.316 285.407 168.252 285.267 168.161 285.146C167.831 284.691 167.416 284.717 167.429 284.658C167.442 284.598 167.521 284.598 167.699 284.618C167.957 284.663 168.19 284.796 168.359 284.994C168.491 285.14 168.586 285.314 168.637 285.504C168.687 285.693 168.692 285.892 168.65 286.083C168.57 286.317 168.421 286.521 168.224 286.67C168.027 286.818 167.789 286.904 167.543 286.916C167.296 286.928 167.052 286.866 166.841 286.737C166.63 286.609 166.462 286.42 166.36 286.196C166.299 286.009 166.285 285.81 166.317 285.616C166.349 285.422 166.427 285.238 166.544 285.08C166.692 284.868 166.909 284.714 167.158 284.645C167.303 284.612 167.402 284.645 167.402 284.658Z" fill="#E0E0E0"/>
<path d="M178.801 241.778C178.801 241.83 178.398 241.844 178.141 242.325C178.062 242.455 178.012 242.6 177.995 242.75C177.978 242.9 177.994 243.053 178.042 243.197C178.126 243.352 178.253 243.481 178.407 243.568C178.562 243.655 178.738 243.696 178.914 243.688C179.091 243.68 179.262 243.622 179.408 243.521C179.554 243.42 179.668 243.28 179.738 243.117C179.773 242.97 179.775 242.817 179.744 242.669C179.713 242.52 179.65 242.381 179.56 242.259C179.37 242.025 179.112 241.856 178.82 241.778C178.82 241.778 178.913 241.718 179.098 241.738C179.354 241.78 179.587 241.911 179.758 242.108C179.889 242.255 179.983 242.43 180.034 242.621C180.084 242.811 180.089 243.011 180.048 243.203C179.967 243.436 179.818 243.64 179.621 243.788C179.423 243.935 179.185 244.021 178.939 244.032C178.692 244.043 178.448 243.98 178.237 243.852C178.027 243.723 177.86 243.534 177.758 243.309C177.696 243.122 177.68 242.923 177.712 242.728C177.745 242.534 177.824 242.35 177.943 242.193C178.087 241.979 178.306 241.826 178.556 241.764C178.708 241.725 178.801 241.758 178.801 241.778Z" fill="#E0E0E0"/>
<path d="M178.9 284.658C178.9 284.717 178.497 284.731 178.24 285.212C178.164 285.343 178.116 285.488 178.1 285.638C178.084 285.788 178.1 285.94 178.147 286.083C178.223 286.246 178.348 286.38 178.504 286.468C178.661 286.555 178.84 286.592 179.018 286.572C179.198 286.574 179.373 286.52 179.521 286.418C179.668 286.317 179.781 286.172 179.843 286.004C179.879 285.857 179.881 285.704 179.85 285.555C179.819 285.407 179.756 285.267 179.665 285.146C179.335 284.691 178.919 284.717 178.926 284.658C178.933 284.598 179.018 284.598 179.197 284.618C179.454 284.661 179.689 284.794 179.857 284.994C179.99 285.139 180.086 285.313 180.138 285.503C180.189 285.692 180.195 285.891 180.154 286.083C180.072 286.317 179.923 286.52 179.725 286.668C179.527 286.816 179.29 286.901 179.043 286.913C178.796 286.925 178.552 286.863 178.34 286.735C178.129 286.608 177.961 286.42 177.857 286.196C177.797 286.008 177.784 285.809 177.817 285.615C177.85 285.421 177.93 285.237 178.048 285.08C178.195 284.867 178.412 284.712 178.662 284.645C178.801 284.612 178.9 284.645 178.9 284.658Z" fill="#E0E0E0"/>
<path d="M207.695 241.778C207.695 241.83 207.293 241.844 207.035 242.325C206.957 242.455 206.907 242.6 206.89 242.75C206.873 242.9 206.889 243.053 206.936 243.197C207.021 243.352 207.148 243.481 207.302 243.568C207.457 243.655 207.632 243.696 207.809 243.688C207.986 243.68 208.157 243.622 208.303 243.521C208.448 243.42 208.563 243.28 208.633 243.117C208.667 242.97 208.669 242.817 208.639 242.669C208.608 242.52 208.545 242.381 208.454 242.259C208.265 242.025 208.006 241.856 207.715 241.778C207.715 241.778 207.808 241.718 207.992 241.738C208.249 241.779 208.483 241.91 208.652 242.108C208.783 242.255 208.878 242.43 208.928 242.621C208.979 242.811 208.984 243.011 208.943 243.203C208.862 243.436 208.713 243.64 208.515 243.788C208.318 243.935 208.08 244.021 207.833 244.032C207.587 244.043 207.343 243.98 207.132 243.852C206.922 243.723 206.755 243.534 206.653 243.309C206.592 243.122 206.578 242.923 206.61 242.729C206.642 242.535 206.72 242.351 206.837 242.193C206.982 241.979 207.201 241.826 207.451 241.764C207.603 241.725 207.702 241.758 207.695 241.778Z" fill="#E0E0E0"/>
<path d="M207.794 284.658C207.794 284.717 207.392 284.731 207.134 285.212C207.056 285.342 207.006 285.487 206.989 285.637C206.972 285.787 206.988 285.94 207.035 286.084C207.12 286.239 207.247 286.368 207.401 286.455C207.556 286.541 207.731 286.583 207.908 286.575C208.085 286.567 208.256 286.509 208.402 286.408C208.548 286.307 208.662 286.167 208.732 286.004C208.772 285.854 208.777 285.696 208.748 285.542C208.718 285.389 208.654 285.245 208.56 285.12C208.23 284.665 207.814 284.691 207.821 284.632C207.827 284.572 207.913 284.572 208.098 284.592C208.355 284.638 208.588 284.771 208.758 284.968C208.888 285.114 208.983 285.289 209.033 285.478C209.084 285.667 209.089 285.866 209.048 286.057C208.968 286.291 208.82 286.495 208.623 286.643C208.425 286.792 208.188 286.877 207.941 286.889C207.695 286.902 207.45 286.839 207.239 286.711C207.028 286.583 206.861 286.394 206.758 286.169C206.696 285.982 206.681 285.783 206.713 285.589C206.745 285.394 206.824 285.211 206.943 285.054C207.089 284.84 207.307 284.686 207.557 284.618C207.702 284.612 207.794 284.645 207.794 284.658Z" fill="#E0E0E0"/>
<path d="M88.341 284.658C88.341 284.717 87.9384 284.731 87.681 285.212C87.6016 285.341 87.5521 285.487 87.5361 285.637C87.5201 285.788 87.5381 285.941 87.5886 286.084C87.674 286.237 87.8006 286.364 87.9542 286.45C88.1078 286.535 88.2823 286.576 88.458 286.568C88.6337 286.56 88.8035 286.503 88.9485 286.403C89.0934 286.304 89.2076 286.165 89.2782 286.004C89.3196 285.853 89.3251 285.695 89.2941 285.541C89.2632 285.387 89.1967 285.243 89.1 285.12C88.77 284.665 88.3542 284.691 88.3608 284.632C88.3674 284.572 88.4532 284.572 88.6314 284.592C88.8892 284.635 89.1233 284.768 89.2914 284.968C89.4244 285.113 89.5208 285.287 89.5725 285.476C89.6242 285.666 89.6296 285.865 89.5884 286.057C89.5068 286.29 89.3576 286.494 89.1597 286.641C88.9619 286.789 88.7244 286.875 88.4778 286.887C88.2311 286.899 87.9865 286.837 87.7752 286.709C87.5639 286.581 87.3955 286.393 87.2916 286.169C87.2329 285.982 87.2191 285.783 87.2512 285.59C87.2833 285.396 87.3604 285.212 87.4764 285.054C87.6264 284.841 87.8457 284.687 88.0968 284.618C88.242 284.612 88.341 284.645 88.341 284.658Z" fill="#E0E0E0"/>
<path d="M198.911 289.337C198.911 289.337 198.911 289.245 198.911 289.08C198.911 288.915 198.911 288.664 198.911 288.354C198.911 287.694 198.911 286.757 198.911 285.542C198.911 283.087 198.911 279.523 198.865 275.042C198.865 266.079 198.818 253.447 198.792 238.742L198.95 238.9H174.445L174.616 238.729C174.616 258.304 174.583 276.131 174.57 289.351L174.445 289.225L192.331 289.291L197.228 289.324H198.508H198.95H198.535H197.274L192.41 289.357L174.445 289.423H174.319V289.298C174.319 276.098 174.286 258.278 174.273 238.676V238.504H199.115V238.669C199.082 253.447 199.056 266.112 199.036 275.108C199.036 279.569 199.003 283.12 198.99 285.569C198.99 286.77 198.99 287.701 198.99 288.347C198.99 288.651 198.99 288.882 198.99 289.054C198.972 289.15 198.946 289.245 198.911 289.337Z" fill="#E0E0E0"/>
<path d="M198.35 263.155C198.35 263.254 193.142 263.327 186.734 263.327C180.325 263.327 175.111 263.254 175.111 263.155C175.111 263.056 180.312 262.983 186.734 262.983C193.156 262.983 198.35 263.063 198.35 263.155Z" fill="#E0E0E0"/>
<path d="M274.065 289.337C274.065 289.337 274.065 289.014 274.065 288.407C274.065 287.8 274.065 286.895 274.065 285.721C274.065 283.364 274.065 279.919 274.032 275.51C274.032 266.706 273.986 254.067 273.959 238.715L274.098 238.854L202.95 238.887L203.122 238.715C203.122 256.839 203.122 274.039 203.122 289.337L202.963 289.179L254.258 289.258L268.877 289.298H272.765H273.768H274.118H273.788H272.804H268.943L254.364 289.344L202.963 289.423H202.805V289.265C202.805 273.966 202.805 256.766 202.805 238.643V238.471H202.983L274.131 238.504H274.27V238.643C274.27 254.027 274.21 266.699 274.197 275.53C274.197 279.919 274.197 283.358 274.157 285.707C274.157 286.869 274.157 287.753 274.157 288.347C274.157 288.941 274.065 289.337 274.065 289.337Z" fill="#E0E0E0"/>
<path d="M34.0296 61.1358V138.89H91.8918V61.1226C91.8918 61.1226 34.0296 61.7628 34.0296 61.1358Z" fill="#E0E0E0"/>
<path d="M34.0296 61.3007V73.3919L91.9116 73.7483V61.1357L34.0296 61.3007Z" fill="#EBEBEB"/>
<path d="M54.9648 66.6995V69.0689H73.4976V67.0163C73.4976 67.0163 55.44 66.6995 54.9648 66.6995Z" fill="white"/>
<path d="M55.374 78.9622H37.257V98.3926H55.374V78.9622Z" fill="#FAFAFA"/>
<path d="M52.8462 118.741H53.6448H55.9416H64.3632L64.3104 118.793C64.3104 113.012 64.3104 105.369 64.3104 97.0134V92.0766H64.3764H81.0348L80.982 92.1294C81.0414 88.5258 81.0876 85.5888 81.1206 83.5494C81.1206 82.5528 81.1206 81.7674 81.1668 81.1998C81.213 80.6322 81.1668 80.3748 81.1668 80.3748C81.1668 80.3748 81.1668 80.6586 81.1668 81.1998C81.1668 81.741 81.1668 82.5198 81.1668 83.5494C81.1668 85.6152 81.114 88.5522 81.0744 92.1294V92.1822H81.0216H64.3632L64.4358 92.1096V96.9804C64.4358 105.349 64.4358 112.992 64.4358 118.76V118.8H64.383H55.9614H53.6646L52.8462 118.741Z" fill="#FAFAFA"/>
<path d="M86.955 124.496H85.5822H81.7014H67.8414H67.782V124.436C67.782 118.853 67.782 112.266 67.782 105.237V96.2675H79.2726L79.2198 96.3269C79.2198 90.9545 79.2198 86.4863 79.2198 83.3381C79.2198 81.7937 79.2198 80.5727 79.2198 79.7081C79.2198 78.8435 79.2198 78.4277 79.2198 78.4277C79.2198 78.4277 79.2198 78.8765 79.2198 79.7081C79.2198 80.5397 79.2198 81.7937 79.2198 83.3381C79.2198 86.4863 79.2198 90.9545 79.2198 96.3269V96.3863H67.7358L67.8018 96.3203C67.8018 99.1847 67.8018 102.194 67.8018 105.283C67.8018 112.312 67.8018 118.899 67.8018 124.483L67.7424 124.423H81.6024H85.4832L86.955 124.496Z" fill="#EBEBEB"/>
<path d="M37.3758 102.636V104.458H52.0344V102.273L37.3758 102.636Z" fill="#FAFAFA"/>
<path d="M37.257 105.811V107.639H51.9156V105.448L37.257 105.811Z" fill="#FAFAFA"/>
<path d="M296.34 211.272C296.34 210.289 296.34 193.452 296.287 164.828L296.34 164.881H195.235L195.307 164.815C195.307 181.143 195.307 196.858 195.307 211.259L195.241 211.193L296.353 211.259L195.241 211.325H195.175V164.762H195.248H296.353H296.399V164.815C296.38 193.426 296.34 210.289 296.34 211.272Z" fill="#EBEBEB"/>
<path d="M296.921 295.086C296.921 295.178 237.851 295.257 165.007 295.257C92.1624 295.257 33.0792 295.178 33.0792 295.086C33.0792 294.994 92.136 294.914 165.007 294.914C237.877 294.914 296.921 295.02 296.921 295.086Z" fill="#263238"/>
<path d="M78.738 224.631H73.1082V295.079H78.738V224.631Z" fill="#263238"/>
<path d="M255.004 224.631H249.374V295.086H255.004V224.631Z" fill="#263238"/>
<path d="M259.849 216.434H71.049C68.8838 216.434 67.1286 218.189 67.1286 220.354V221.43C67.1286 223.595 68.8838 225.35 71.049 225.35H259.849C262.014 225.35 263.769 223.595 263.769 221.43V220.354C263.769 218.189 262.014 216.434 259.849 216.434Z" fill="#455A64"/>
<path d="M208.989 66.9902L186.648 58.9712L164.531 66.8912C161.707 68.2112 159.251 69.023 159.251 71.6498V84.7442C159.203 93.9398 161.717 102.967 166.511 110.814C171.303 118.744 178.405 125.017 186.866 128.793C195.908 125.856 202.66 118.021 206.785 111.329C211.591 103.485 214.116 94.4578 214.078 85.259V73.478C214.078 69.7226 212.084 67.8944 208.989 66.9902Z" fill="#644FE9"/>
<g opacity="0.3">
<path d="M186.866 121.189C180.163 118.162 174.545 113.161 170.762 106.854C166.964 100.645 164.969 93.5012 165 86.2226V77.0354C165 74.9564 166.254 73.0028 168.749 71.8412L186.655 65.1488V58.9712L164.538 66.8912C162.215 67.901 159.258 69.023 159.258 71.6498V84.7442C159.209 93.9398 161.723 102.967 166.518 110.814C171.309 118.744 178.412 125.017 186.872 128.793L186.866 121.189Z" fill="black"/>
</g>
<g opacity="0.4">
<path d="M186.866 128.793C188.381 128.296 189.85 127.667 191.255 126.912C194.701 124.958 197.831 122.495 200.541 119.605C203.004 116.956 205.17 114.045 207.002 110.926C211.872 103.028 214.331 93.8808 214.078 84.6056V73.7882C214.078 68.4026 211.299 68.0066 208.976 66.9902L186.648 58.9712V65.1488L204.772 71.9402C207.266 73.1084 208.52 75.0554 208.52 77.141V86.3282C208.551 93.6056 206.554 100.748 202.752 106.953C199.056 113.225 193.506 118.197 186.866 121.183V128.793Z" fill="black"/>
</g>
<path opacity="0.5" d="M192.575 85.635V83.8662C192.524 82.3624 191.891 80.937 190.809 79.8911C189.727 78.8452 188.281 78.2605 186.777 78.2605C185.272 78.2605 183.826 78.8452 182.744 79.8911C181.662 80.937 181.029 82.3624 180.979 83.8662V85.668C180.209 85.7819 179.506 86.1684 178.997 86.7571C178.488 87.3458 178.208 88.0976 178.207 88.8757V99.3037C178.208 100.164 178.551 100.988 179.16 101.595C179.769 102.203 180.594 102.544 181.454 102.544H192.278C192.704 102.545 193.126 102.462 193.52 102.299C193.914 102.137 194.272 101.898 194.574 101.597C194.875 101.296 195.114 100.939 195.278 100.545C195.441 100.152 195.525 99.7298 195.525 99.3037V88.8757C195.527 88.0646 195.225 87.2823 194.679 86.6826C194.133 86.0829 193.382 85.7092 192.575 85.635ZM188.351 96.6966H185.519L185.962 94.6572C185.649 94.4556 185.41 94.1582 185.281 93.8096C185.151 93.4609 185.138 93.0797 185.243 92.723C185.348 92.3662 185.566 92.0531 185.864 91.8303C186.162 91.6075 186.524 91.4872 186.895 91.4872C187.267 91.4872 187.629 91.6075 187.927 91.8303C188.225 92.0531 188.443 92.3662 188.548 92.723C188.653 93.0797 188.64 93.4609 188.51 93.8096C188.381 94.1582 188.142 94.4556 187.829 94.6572L188.351 96.6966ZM191.327 85.6218H182.226V83.8662C182.271 82.6893 182.77 81.5755 183.618 80.7587C184.467 79.9419 185.599 79.4856 186.777 79.4856C187.954 79.4856 189.086 79.9419 189.935 80.7587C190.783 81.5755 191.283 82.6893 191.327 83.8662V85.6218Z" fill="white"/>
<path d="M168.617 85.5098C168.428 84.9218 168.317 84.3116 168.287 83.6948C168.116 82.2186 168.054 80.7317 168.102 79.2464C168.102 78.3752 168.188 77.5502 168.267 76.7978C168.297 76.1112 168.465 75.4377 168.762 74.8178C168.977 74.3959 169.318 74.052 169.739 73.8344C170.042 73.6892 170.234 73.6958 170.234 73.7222C169.695 73.9719 169.262 74.4045 169.013 74.9432C168.77 75.5413 168.638 76.1788 168.623 76.8242C168.564 77.57 168.518 78.3884 168.491 79.253C168.445 80.9756 168.491 82.553 168.557 83.6618C168.63 84.275 168.65 84.8932 168.617 85.5098Z" fill="white"/>
<path d="M168.96 91.212C168.854 91.212 168.755 90.6775 168.742 90.0109C168.729 89.3443 168.808 88.803 168.914 88.7964C169.019 88.7898 169.118 89.3376 169.132 90.0042C169.145 90.6708 169.052 91.212 168.96 91.212Z" fill="white"/>
<path d="M216.572 60.3637C217.176 60.5081 217.768 60.7001 218.341 60.9379C219.042 61.2178 219.707 61.5812 220.321 62.0203C221.189 62.613 221.908 63.3993 222.42 64.3171C223.037 65.4832 223.368 66.7796 223.384 68.0989C223.384 69.5377 223.384 71.0953 223.384 72.7783C223.384 76.1377 223.417 79.9789 223.384 84.2623C223.322 88.9695 222.715 93.6538 221.575 98.2213C220.237 103.54 218.169 108.649 215.431 113.401C212.366 118.722 208.569 123.585 204.151 127.849C199.531 132.264 193.829 136.171 187.169 138.244H187.11H187.051C184.718 137.247 182.442 136.123 180.233 134.878C177.974 133.569 175.798 132.12 173.719 130.542C169.427 127.258 165.607 123.401 162.367 119.077C155.355 109.837 151.184 98.7562 150.361 87.1861C150.15 84.4471 150.209 81.7411 150.203 79.0813V71.2075C150.203 69.8875 150.203 68.6467 150.203 67.3861C150.182 66.7496 150.204 66.1123 150.269 65.4787C150.365 64.8344 150.629 64.2266 151.034 63.7165C151.865 62.7784 152.896 62.0386 154.051 61.5517C155.153 61.0303 156.262 60.5749 157.351 60.0931L186.78 50.1931H186.813H186.853L208.685 57.6577L214.513 59.6377L216.011 60.1591L216.52 60.3505C216.52 60.3505 216.341 60.3043 216.005 60.1921L214.493 59.6971L208.646 57.7171L186.833 50.3845H186.905L157.502 60.3703C156.42 60.8521 155.305 61.3075 154.202 61.8289C153.089 62.2984 152.094 63.011 151.292 63.9145C150.919 64.3842 150.677 64.9445 150.592 65.5381C150.532 66.1544 150.512 66.7739 150.533 67.3927V71.2141C150.533 73.7815 150.533 76.4017 150.533 79.0549C150.533 81.7081 150.487 84.4141 150.698 87.1333C151.52 98.6392 155.67 109.658 162.644 118.846C165.868 123.145 169.668 126.98 173.936 130.245C176.002 131.815 178.165 133.255 180.411 134.554C182.617 135.808 184.891 136.938 187.222 137.94H187.11C193.71 135.894 199.353 132 203.973 127.631C208.377 123.393 212.164 118.559 215.226 113.269C217.951 108.55 220.018 103.481 221.371 98.2015C222.518 93.6547 223.136 88.9906 223.212 84.3019C223.212 80.0251 223.212 76.1773 223.252 72.8179C223.252 71.1349 223.252 69.5707 223.252 68.1451C223.25 66.8444 222.935 65.5631 222.334 64.4095C221.836 63.5037 221.139 62.7228 220.295 62.1259C219.678 61.6871 219.014 61.3196 218.315 61.0303C217.883 60.8493 217.443 60.6907 216.995 60.5551L216.572 60.3637Z" fill="#644FE9"/>
<path d="M147.048 164.611L148.691 195.631L189.981 196.574L186.925 172.471L190.08 147.84C188.008 136.303 171.831 135.505 171.831 135.505L159.139 135.3C154.793 134.986 150.451 135.95 146.645 138.072C146.645 138.072 133.762 145.088 133.874 162.914" fill="#455A64"/>
<path d="M171.956 135.148C171.674 136.021 171.3 136.862 170.841 137.656C170.224 138.562 169.394 139.302 168.424 139.812C167.454 140.322 166.373 140.585 165.277 140.58C164.18 140.601 163.095 140.349 162.12 139.845C161.145 139.342 160.311 138.603 159.694 137.696C159.34 137.127 159.073 136.509 158.902 135.861C158.854 135.616 158.781 135.378 158.684 135.148C158.665 135.401 158.687 135.655 158.75 135.901C158.873 136.582 159.114 137.236 159.463 137.834C159.988 138.734 160.741 139.479 161.647 139.993C162.746 140.642 164.001 140.982 165.277 140.976C166.553 140.98 167.805 140.631 168.894 139.966C169.786 139.434 170.535 138.693 171.079 137.808C171.434 137.214 171.694 136.568 171.851 135.894C171.932 135.654 171.967 135.401 171.956 135.148Z" fill="#263238"/>
<path d="M181.658 145.53C179.691 147.099 178.083 149.073 176.945 151.317C175.806 153.561 175.163 156.024 175.058 158.539C174.742 166.419 174.253 177.362 173.963 177.91C173.059 179.599 149.173 178.161 146.659 177.982L143.623 177.045C143.623 177.045 138.039 172.214 137.023 173.666C136.006 175.118 139.953 176.049 140.719 178.9C141.484 181.751 133.551 179.52 133.036 179.17L130.99 178.59C130.99 178.59 132.205 182.484 133.241 183.718C136.541 187.678 144.124 189.658 144.124 189.658C144.124 189.658 175.058 199.71 187.552 191.413C191.638 188.701 192.331 162.109 190.786 151.813C190.49 149.849 189.492 148.058 187.978 146.772C186.464 145.486 184.536 144.792 182.549 144.817L181.658 145.53Z" fill="#FFBE9D"/>
<path d="M135.769 182.978C135.166 182.605 134.538 182.277 133.888 181.995C133.276 181.64 132.641 181.327 131.987 181.058C132.521 181.532 133.127 181.92 133.782 182.206C134.401 182.564 135.071 182.824 135.769 182.978Z" fill="#EB996E"/>
<path d="M186.78 141.814C190.588 145.457 194.278 152.77 192.911 167.402L172.616 166.564L173.138 146.54C173.167 145.537 173.42 144.553 173.876 143.659C174.333 142.765 174.982 141.984 175.778 141.372C177.364 140.123 179.343 139.482 181.36 139.563C183.377 139.644 185.299 140.442 186.78 141.814Z" fill="#455A64"/>
<path d="M146.335 291.06L145.794 283.384L160.162 282.269L161.08 293.489L160.195 293.614C156.235 294.142 140.078 296.023 137.366 295.423C134.343 294.756 146.335 291.06 146.335 291.06Z" fill="#644FE9"/>
<g opacity="0.3">
<path d="M155.859 293.779C155.978 292.55 156.547 291.408 157.456 290.572C158.35 289.731 159.529 289.26 160.756 289.252L161.073 293.265L155.859 293.779Z" fill="white"/>
</g>
<g opacity="0.3">
<path d="M140.494 293.08C140.494 293.08 136.31 294.644 136.897 295.311C137.485 295.977 153.892 294.69 161.08 293.489L161.033 293.172L141.893 294.829C141.893 294.829 141.332 293.04 140.494 293.08Z" fill="white"/>
</g>
<path d="M161.258 293.146L161.014 293.192L160.307 293.291L157.7 293.608C155.503 293.859 152.46 294.162 149.12 294.433C145.781 294.703 142.692 294.868 140.481 294.967L137.841 295.06H137.128C137.045 295.071 136.961 295.071 136.877 295.06H137.128L137.841 295.014L140.481 294.862C142.692 294.736 145.761 294.545 149.114 294.274C152.467 294.004 155.522 293.72 157.694 293.502L160.334 293.238L161.04 293.172C161.111 293.156 161.184 293.147 161.258 293.146Z" fill="#263238"/>
<path d="M141.9 295.053C141.658 294.176 141.107 293.417 140.349 292.915C140.808 293.044 141.202 293.337 141.458 293.74C141.764 294.107 141.922 294.575 141.9 295.053Z" fill="#263238"/>
<path d="M145.999 292.571C145.959 292.571 145.741 292.367 145.504 292.057C145.266 291.746 145.108 291.463 145.147 291.436C145.187 291.41 145.411 291.634 145.642 291.951C145.873 292.268 146.038 292.538 145.999 292.571Z" fill="#263238"/>
<path d="M147.114 291.865C147.114 291.905 146.85 291.766 146.586 291.568C146.322 291.37 146.124 291.166 146.157 291.126C146.19 291.087 146.428 291.225 146.692 291.43C146.956 291.634 147.18 291.826 147.114 291.865Z" fill="#263238"/>
<path d="M147.748 290.453C147.512 290.555 147.258 290.607 147.002 290.605C146.752 290.662 146.493 290.662 146.243 290.605C146.477 290.499 146.732 290.447 146.989 290.453C147.238 290.392 147.498 290.392 147.748 290.453Z" fill="#263238"/>
<path d="M147.926 289.476C147.689 289.656 147.404 289.762 147.107 289.78C146.817 289.855 146.51 289.839 146.23 289.733C146.509 289.668 146.794 289.626 147.081 289.608C147.358 289.539 147.641 289.495 147.926 289.476Z" fill="#263238"/>
<path d="M145.418 291.357C145.116 291.43 144.803 291.452 144.494 291.423C144.155 291.408 143.819 291.359 143.491 291.278C143.29 291.241 143.095 291.179 142.91 291.093C142.795 291.037 142.706 290.941 142.659 290.822C142.64 290.756 142.64 290.685 142.66 290.618C142.68 290.551 142.718 290.492 142.771 290.446C143.11 290.245 143.507 290.169 143.896 290.229C144.285 290.289 144.641 290.482 144.903 290.776C145.06 290.948 145.179 291.15 145.253 291.37C145.284 291.448 145.299 291.531 145.299 291.614C145.181 291.339 145.019 291.084 144.817 290.862C144.589 290.635 144.3 290.479 143.986 290.413C143.802 290.365 143.61 290.354 143.422 290.381C143.234 290.408 143.053 290.473 142.89 290.572C142.751 290.69 142.824 290.862 142.996 290.941C143.167 291.021 143.346 291.082 143.53 291.126C143.849 291.208 144.173 291.266 144.5 291.298C145.061 291.35 145.411 291.324 145.418 291.357Z" fill="#263238"/>
<path d="M145.2 291.416C145.063 291.225 145.007 290.989 145.042 290.756C145.053 290.511 145.12 290.272 145.24 290.057C145.307 289.914 145.41 289.791 145.538 289.699C145.666 289.606 145.815 289.548 145.972 289.529C146.02 289.534 146.066 289.548 146.108 289.571C146.15 289.594 146.186 289.625 146.216 289.663C146.245 289.701 146.267 289.744 146.28 289.79C146.292 289.836 146.295 289.884 146.289 289.931C146.281 290.079 146.241 290.224 146.17 290.354C146.065 290.568 145.932 290.768 145.774 290.948C145.51 291.258 145.286 291.383 145.273 291.364C145.259 291.344 145.444 291.185 145.675 290.875C145.812 290.692 145.93 290.496 146.025 290.288C146.131 290.083 146.19 289.727 145.959 289.7C145.728 289.674 145.51 289.945 145.378 290.143C145.264 290.332 145.192 290.543 145.167 290.763C145.155 290.981 145.166 291.2 145.2 291.416Z" fill="#263238"/>
<path d="M160.657 289.232C160.657 289.232 160.241 289.232 159.601 289.357C158.76 289.515 157.981 289.91 157.356 290.494C156.731 291.078 156.285 291.829 156.07 292.657C155.899 293.317 155.912 293.707 155.879 293.707C155.86 293.611 155.86 293.512 155.879 293.416C155.884 293.15 155.917 292.884 155.978 292.624C156.168 291.76 156.617 290.973 157.264 290.369C157.911 289.764 158.726 289.37 159.601 289.238C159.863 289.199 160.129 289.186 160.393 289.199C160.482 289.199 160.571 289.211 160.657 289.232Z" fill="#263238"/>
<path d="M158.697 283.371C158.879 284.344 158.998 285.327 159.053 286.315C159.173 287.296 159.235 288.283 159.238 289.271C159.057 288.299 158.938 287.316 158.882 286.328C158.762 285.347 158.701 284.359 158.697 283.371Z" fill="#263238"/>
<path d="M153.945 292.519C152.58 292.896 151.157 293.021 149.747 292.888C149.747 292.835 150.691 292.822 151.846 292.717C153.001 292.611 153.932 292.472 153.945 292.519Z" fill="#263238"/>
<path d="M156.757 292.294C156.796 292.327 156.697 292.499 156.618 292.723C156.539 292.948 156.506 293.146 156.453 293.146C156.4 293.146 156.361 292.921 156.453 292.664C156.545 292.406 156.724 292.268 156.757 292.294Z" fill="#263238"/>
<path d="M157.74 290.895C157.773 290.895 157.694 291.08 157.555 291.245C157.417 291.41 157.278 291.509 157.245 291.482C157.212 291.456 157.285 291.291 157.423 291.133C157.562 290.974 157.681 290.862 157.74 290.895Z" fill="#263238"/>
<path d="M159.192 290.169C159.192 290.222 158.994 290.235 158.789 290.328C158.585 290.42 158.44 290.539 158.4 290.512C158.36 290.486 158.459 290.275 158.717 290.163C158.974 290.05 159.199 290.123 159.192 290.169Z" fill="#263238"/>
<path d="M160.248 289.799C160.248 289.846 160.195 289.925 160.076 289.978C159.958 290.03 159.852 290.044 159.832 289.978C159.812 289.912 159.885 289.852 160.004 289.799C160.123 289.747 160.228 289.74 160.248 289.799Z" fill="#263238"/>
<path d="M102.168 291.423L102.359 283.734L116.774 284.005L116.609 295.258L115.711 295.304C111.751 295.449 95.4624 295.759 92.8158 294.908C89.8722 293.951 102.168 291.423 102.168 291.423Z" fill="#644FE9"/>
<g opacity="0.3">
<path d="M111.382 295.02C111.622 293.81 112.299 292.729 113.282 291.984C114.248 291.243 115.456 290.892 116.668 291.001L116.596 295.027L111.382 295.02Z" fill="white"/>
</g>
<g opacity="0.3">
<path d="M96.1554 292.875C96.1554 292.875 91.839 294.03 92.3604 294.749C92.8818 295.469 109.336 295.766 116.609 295.258V294.941L97.416 294.749C97.416 294.749 97.02 292.921 96.1554 292.875Z" fill="white"/>
</g>
<path d="M116.82 294.934H116.569L115.856 294.967L113.216 295.033C110.999 295.073 107.936 295.086 104.564 295.033C101.191 294.981 98.1288 294.855 95.9178 294.736L93.2778 294.578L92.5716 294.525C92.4883 294.535 92.4041 294.535 92.3208 294.525C92.4042 294.518 92.4881 294.518 92.5716 294.525H93.2844L95.9244 294.624C98.1354 294.71 101.204 294.809 104.57 294.868C107.936 294.928 110.999 294.934 113.216 294.928H116.549C116.64 294.918 116.73 294.921 116.82 294.934Z" fill="#263238"/>
<path d="M97.3962 294.974C97.2878 294.539 97.1306 294.119 96.9276 293.72C96.6768 293.345 96.3821 293.002 96.0498 292.697C96.4743 292.898 96.8277 293.224 97.0633 293.63C97.299 294.037 97.4059 294.505 97.3698 294.974H97.3962Z" fill="#263238"/>
<path d="M101.686 292.895C101.647 292.895 101.449 292.671 101.244 292.334C101.039 291.997 100.907 291.707 100.947 291.674C100.987 291.641 101.185 291.905 101.389 292.235C101.594 292.565 101.726 292.869 101.686 292.895Z" fill="#263238"/>
<path d="M102.861 292.301C102.861 292.334 102.604 292.182 102.359 291.951C102.115 291.72 101.944 291.509 101.977 291.476C102.01 291.443 102.234 291.595 102.478 291.826C102.722 292.057 102.894 292.268 102.861 292.301Z" fill="#263238"/>
<path d="M103.62 290.955C103.378 291.037 103.121 291.065 102.868 291.034C102.613 291.064 102.355 291.033 102.115 290.941C102.61 290.827 103.125 290.827 103.62 290.941V290.955Z" fill="#263238"/>
<path d="M103.897 289.997C103.646 290.16 103.351 290.241 103.052 290.228C102.757 290.272 102.456 290.226 102.188 290.096C102.472 290.055 102.759 290.039 103.046 290.05C103.328 290.01 103.612 289.992 103.897 289.997Z" fill="#263238"/>
<path d="M101.218 291.628C100.912 291.682 100.599 291.682 100.294 291.628C99.959 291.58 99.6296 291.501 99.3102 291.39C99.1145 291.33 98.9263 291.248 98.7492 291.146C98.6413 291.08 98.5614 290.977 98.5248 290.855C98.5125 290.787 98.5203 290.716 98.5473 290.652C98.5742 290.587 98.6191 290.532 98.6766 290.492C99.0329 290.323 99.4371 290.284 99.8193 290.382C100.201 290.48 100.537 290.708 100.769 291.027C100.906 291.213 101.004 291.424 101.059 291.647C101.077 291.73 101.077 291.816 101.059 291.898C100.967 291.612 100.829 291.342 100.65 291.1C100.445 290.852 100.172 290.668 99.8646 290.572C99.5046 290.444 99.1085 290.463 98.7624 290.624C98.6106 290.737 98.67 290.908 98.8284 291.007C98.9924 291.1 99.1647 291.178 99.3432 291.238C99.6527 291.351 99.9705 291.439 100.294 291.502C100.868 291.595 101.218 291.601 101.218 291.628Z" fill="#263238"/>
<path d="M100.98 291.674C100.868 291.473 100.833 291.239 100.881 291.014C100.918 290.776 101.011 290.55 101.152 290.354C101.231 290.217 101.345 290.104 101.481 290.024C101.618 289.944 101.772 289.901 101.93 289.898C102.023 289.921 102.103 289.977 102.155 290.057C102.207 290.137 102.225 290.234 102.208 290.327C102.182 290.476 102.126 290.618 102.043 290.743C101.915 290.943 101.764 291.126 101.594 291.291C101.444 291.451 101.262 291.577 101.059 291.661C101.059 291.661 101.244 291.496 101.508 291.205C101.658 291.037 101.791 290.853 101.904 290.657C102.036 290.466 102.128 290.116 101.904 290.07C101.68 290.024 101.429 290.268 101.284 290.453C101.153 290.63 101.061 290.832 101.013 291.047C100.983 291.254 100.972 291.464 100.98 291.674Z" fill="#263238"/>
<path d="M116.596 290.988C116.596 291.021 116.18 290.941 115.533 290.988C114.681 291.066 113.869 291.384 113.19 291.905C112.511 292.426 111.994 293.128 111.698 293.931C111.467 294.545 111.441 294.961 111.408 294.954C111.389 294.858 111.389 294.76 111.408 294.664C111.438 294.401 111.495 294.142 111.58 293.892C111.853 293.044 112.379 292.301 113.087 291.76C113.794 291.22 114.65 290.909 115.54 290.869C115.803 290.839 116.068 290.839 116.332 290.869C116.427 290.888 116.517 290.929 116.596 290.988Z" fill="#263238"/>
<path d="M115.21 284.962C115.29 285.947 115.314 286.937 115.282 287.925C115.306 288.912 115.271 289.899 115.177 290.882C115.096 289.896 115.072 288.907 115.104 287.918C115.084 286.932 115.12 285.945 115.21 284.962Z" fill="#263238"/>
<path d="M109.6 293.608C108.203 293.848 106.775 293.836 105.382 293.575C105.382 293.522 106.333 293.575 107.488 293.608C108.643 293.641 109.593 293.561 109.6 293.608Z" fill="#263238"/>
<path d="M112.424 293.661C112.424 293.694 112.339 293.859 112.24 294.07C112.141 294.281 112.088 294.472 112.035 294.472C111.982 294.472 111.962 294.241 112.081 293.997C112.2 293.753 112.391 293.621 112.424 293.661Z" fill="#263238"/>
<path d="M113.52 292.38C113.56 292.413 113.461 292.565 113.309 292.71C113.157 292.855 113.005 292.954 112.972 292.915C112.939 292.875 113.038 292.736 113.19 292.585C113.342 292.433 113.474 292.321 113.52 292.38Z" fill="#263238"/>
<path d="M115.045 291.773C115.045 291.826 114.84 291.819 114.629 291.892C114.418 291.964 114.259 292.07 114.226 292.037C114.193 292.004 114.312 291.806 114.576 291.72C114.84 291.634 115.058 291.72 115.045 291.773Z" fill="#263238"/>
<path d="M116.16 291.509C116.16 291.555 116.094 291.628 115.975 291.674C115.856 291.72 115.738 291.713 115.724 291.674C115.711 291.634 115.79 291.562 115.909 291.515C116.028 291.469 116.114 291.463 116.16 291.509Z" fill="#263238"/>
<path d="M114.84 194.746L164.267 194.126L153.938 217.365L122.324 217.49L119.282 288.684H99.9702L101.812 209.273C101.896 205.696 103.256 202.267 105.646 199.604C108.036 196.942 111.299 195.221 114.847 194.753L114.84 194.746Z" fill="#263238"/>
<path d="M119.922 283.199C119.922 283.094 115.441 283.008 109.91 283.008C104.379 283.008 99.9042 283.094 99.9042 283.199C99.9042 283.305 104.386 283.397 109.91 283.397C115.434 283.397 119.922 283.305 119.922 283.199Z" fill="#455A64"/>
<path d="M161.819 219.259L163.211 287.628L140.87 288.724C140.87 288.724 137.313 221.74 139.088 202.732C140.303 189.724 189.948 195.314 189.948 195.314C190.667 221.219 161.819 219.259 161.819 219.259Z" fill="#263238"/>
<path d="M163.211 282.236C162.928 282.19 162.64 282.179 162.353 282.203L160.01 282.256C158.03 282.322 155.305 282.441 152.295 282.592C149.285 282.744 146.553 282.903 144.58 283.035L142.25 283.219C141.96 283.223 141.672 283.263 141.392 283.338C141.678 283.38 141.968 283.391 142.256 283.371L144.599 283.312C146.579 283.252 149.305 283.134 152.315 282.982C155.324 282.83 158.057 282.672 160.03 282.533L162.36 282.355C162.647 282.349 162.933 282.309 163.211 282.236Z" fill="#455A64"/>
<path d="M162.103 213.517C161.85 214.598 161.721 215.706 161.72 216.817C161.592 217.913 161.592 219.02 161.72 220.117C161.973 219.035 162.102 217.928 162.103 216.817C162.23 215.72 162.23 214.613 162.103 213.517Z" fill="#455A64"/>
<path d="M162.967 194.258C162.827 194.241 162.685 194.241 162.545 194.258H161.337C160.288 194.291 158.763 194.344 156.889 194.449C155.014 194.555 152.777 194.72 150.289 195.109C147.583 195.475 144.985 196.409 142.666 197.848C142.065 198.251 141.517 198.728 141.035 199.267C140.562 199.802 140.198 200.426 139.966 201.102C139.568 202.353 139.305 203.643 139.181 204.95C138.975 207.144 138.883 209.346 138.904 211.55V215.998C138.904 216.487 138.904 216.883 138.904 217.206C138.886 217.346 138.886 217.488 138.904 217.628C138.94 217.49 138.96 217.349 138.963 217.206C138.963 216.935 139.022 216.546 139.049 215.998C139.108 214.949 139.141 213.431 139.174 211.556C139.207 209.682 139.247 207.445 139.531 204.989C139.665 203.709 139.93 202.447 140.323 201.221C140.823 199.953 141.721 198.883 142.883 198.172C145.153 196.763 147.69 195.841 150.335 195.466C152.777 195.083 155.008 194.891 156.875 194.746L161.311 194.436L162.512 194.337C162.666 194.33 162.819 194.303 162.967 194.258Z" fill="#455A64"/>
<path d="M165.086 140.95C164.2 140.945 163.324 140.766 162.508 140.422C161.692 140.078 160.952 139.576 160.33 138.944C159.709 138.313 159.219 137.565 158.887 136.744C158.556 135.923 158.39 135.044 158.4 134.158C158.4 131.828 158.466 129.809 158.466 129.809C158.466 129.809 153.074 129.307 152.678 123.968C152.282 118.628 152.453 106.306 152.453 106.306C155.409 104.815 158.71 104.139 162.014 104.349C165.318 104.559 168.507 105.647 171.25 107.501L172.082 108.062L171.824 134.303C171.809 136.077 171.091 137.773 169.828 139.018C168.565 140.264 166.86 140.958 165.086 140.95Z" fill="#FFBE9D"/>
<path d="M158.308 120.681C157.908 120.787 157.492 120.821 157.08 120.78C156.971 120.799 156.859 120.799 156.75 120.78C156.674 120.762 156.603 120.728 156.542 120.678C156.482 120.629 156.433 120.567 156.4 120.496C156.327 120.229 156.348 119.945 156.46 119.691L156.915 118.147C157.575 115.969 158.235 114.233 158.327 114.266C158.42 114.299 157.984 116.094 157.311 118.272C157.139 118.8 156.981 119.302 156.823 119.803C156.736 119.977 156.7 120.171 156.717 120.364C156.717 120.47 156.895 120.503 157.087 120.509C157.5 120.497 157.913 120.555 158.308 120.681Z" fill="#263238"/>
<path d="M158.4 129.736C160.87 129.63 163.252 128.791 165.244 127.327C165.244 127.327 163.832 131.287 158.473 131.116L158.4 129.736Z" fill="#EB996E"/>
<path d="M170.676 113.969C170.775 113.929 174.055 113.5 173.745 117.374C173.435 121.249 169.62 119.658 169.62 119.546C169.62 119.434 170.676 113.969 170.676 113.969Z" fill="#FFBE9D"/>
<path d="M170.94 118.279C170.94 118.279 170.999 118.331 171.112 118.391C171.265 118.474 171.446 118.493 171.613 118.444C171.875 118.305 172.096 118.1 172.253 117.848C172.409 117.597 172.496 117.308 172.504 117.011C172.543 116.679 172.505 116.343 172.392 116.028C172.368 115.904 172.312 115.787 172.232 115.689C172.151 115.591 172.047 115.515 171.93 115.467C171.854 115.439 171.77 115.439 171.694 115.467C171.618 115.495 171.554 115.548 171.514 115.619C171.455 115.724 171.475 115.804 171.455 115.81C171.435 115.817 171.376 115.738 171.415 115.579C171.449 115.485 171.511 115.404 171.593 115.348C171.706 115.279 171.84 115.255 171.97 115.282C172.127 115.327 172.269 115.411 172.385 115.527C172.5 115.642 172.585 115.785 172.63 115.942C172.766 116.292 172.816 116.671 172.775 117.044C172.768 117.39 172.658 117.726 172.459 118.01C172.261 118.293 171.982 118.511 171.659 118.635C171.552 118.659 171.441 118.657 171.335 118.631C171.228 118.605 171.129 118.554 171.046 118.483C170.94 118.371 170.94 118.285 170.94 118.279Z" fill="#EB996E"/>
<path d="M152.843 106.63C152.19 106.436 151.62 106.03 151.222 105.477C150.824 104.924 150.621 104.255 150.645 103.574C150.693 102.894 150.924 102.239 151.315 101.68C151.705 101.121 152.24 100.678 152.863 100.399C153.49 100.132 154.167 100 154.85 100.012C155.532 100.023 156.204 100.178 156.823 100.465C157.012 99.4684 157.549 98.5714 158.34 97.935C159.13 97.2985 160.121 96.9643 161.135 96.9921C162.149 97.0199 163.121 97.4079 163.875 98.0867C164.629 98.7654 165.117 99.6905 165.251 100.696C165.383 99.6667 166.571 99.0925 167.587 99.0265C168.105 98.9738 168.628 99.0398 169.116 99.2193C169.604 99.3989 170.045 99.6873 170.405 100.063C170.753 100.448 170.946 100.949 170.946 101.468C170.946 101.988 170.753 102.489 170.405 102.874C171.565 102.724 172.74 103.006 173.705 103.666C174.183 104.004 174.568 104.455 174.826 104.98C175.084 105.504 175.207 106.085 175.184 106.669C175.14 107.251 174.914 107.804 174.538 108.25C174.163 108.697 173.657 109.014 173.092 109.157C172.702 109.243 172.603 108.979 172.392 109.316C172.281 109.679 172.23 110.058 172.24 110.438C172.316 111.661 172.243 112.889 172.022 114.094C171.665 113.969 171.273 113.986 170.927 114.14C170.581 114.295 170.307 114.576 170.161 114.926C169.896 115.64 169.823 116.412 169.95 117.163C169.849 117.268 169.726 117.349 169.589 117.401C169.453 117.452 169.307 117.473 169.161 117.461C169.016 117.449 168.875 117.404 168.749 117.331C168.623 117.258 168.515 117.158 168.432 117.038C168.126 116.523 167.99 115.925 168.043 115.328L167.963 109.151C167.659 109.319 167.316 109.407 166.968 109.407C166.621 109.407 166.278 109.318 165.974 109.149C165.67 108.98 165.414 108.736 165.229 108.441C165.045 108.146 164.939 107.809 164.921 107.461C164.484 107.881 163.96 108.198 163.386 108.389C162.811 108.581 162.202 108.642 161.601 108.569C161 108.496 160.423 108.29 159.911 107.966C159.4 107.642 158.967 107.208 158.644 106.696C158.025 107.216 157.344 107.659 156.618 108.016C155.879 108.378 155.032 108.451 154.242 108.22C153.851 108.099 153.506 107.859 153.257 107.534C153.008 107.209 152.865 106.815 152.849 106.405L153.12 106.174" fill="#263238"/>
<path d="M171.956 195.063H119.196L110.497 161.37H154.519L161.489 192.865L171.956 193.116V195.063Z" fill="#644FE9"/>
<path d="M156.116 114.418C156.169 114.49 155.681 114.873 154.955 114.886C154.229 114.9 153.721 114.55 153.773 114.477C153.826 114.405 154.315 114.563 154.948 114.543C155.582 114.523 156.07 114.332 156.116 114.418Z" fill="#263238"/>
<path d="M154.216 114.774C154.216 114.955 154.288 115.129 154.416 115.257C154.544 115.385 154.718 115.457 154.899 115.457C155.08 115.457 155.254 115.385 155.382 115.257C155.51 115.129 155.582 114.955 155.582 114.774" fill="#263238"/>
<path d="M163.541 114.464C163.601 114.537 163.112 114.919 162.38 114.933C161.647 114.946 161.146 114.596 161.198 114.523C161.251 114.451 161.746 114.609 162.373 114.589C163 114.57 163.495 114.378 163.541 114.464Z" fill="#263238"/>
<path d="M161.647 114.84C161.647 115.02 161.719 115.193 161.846 115.321C161.974 115.448 162.147 115.52 162.327 115.52C162.507 115.52 162.68 115.448 162.808 115.321C162.935 115.193 163.007 115.02 163.007 114.84" fill="#263238"/>
<path d="M164.023 112.728C163.97 113.012 163.205 113.117 162.301 113.131C161.396 113.144 160.624 113.051 160.571 112.768C160.519 112.484 161.278 112.108 162.287 112.108C163.297 112.108 164.069 112.451 164.023 112.728Z" fill="#263238"/>
<path d="M156.361 113.157C156.314 113.441 155.549 113.553 154.645 113.566C153.74 113.579 152.968 113.48 152.909 113.197C152.849 112.913 153.622 112.537 154.631 112.537C155.641 112.537 156.42 112.86 156.361 113.157Z" fill="#263238"/>
<path d="M175.646 115.969C175.646 116.933 175.263 117.858 174.581 118.54C173.899 119.222 172.974 119.605 172.009 119.605C170.029 119.605 169.303 117.982 169.303 115.969C169.303 113.956 170.003 112.339 172.009 112.339C172.973 112.339 173.897 112.721 174.578 113.401C175.26 114.082 175.644 115.005 175.646 115.969Z" fill="#455A64"/>
<path d="M171.699 113.197C171.699 113.197 174.511 99.7062 165.271 100.234L164.828 99.3894C164.828 99.3894 170.425 98.0694 172.471 102.425C174.068 105.818 173.032 113.051 173.032 113.051L171.699 113.197Z" fill="#455A64"/>
<path d="M172.471 119.605C172.024 119.622 171.588 119.464 171.257 119.163C170.401 118.505 169.837 117.539 169.686 116.47C169.561 115.407 169.793 114.332 170.346 113.414C170.815 112.708 171.402 112.616 171.395 112.662C171.05 112.886 170.761 113.187 170.551 113.54C170.107 114.432 169.93 115.434 170.042 116.424C170.188 117.409 170.676 118.312 171.422 118.972C171.747 119.222 172.099 119.434 172.471 119.605Z" fill="#263238"/>
<path d="M158.539 122.1C158.591 122.179 158.492 122.344 158.281 122.404C158.07 122.463 157.892 122.404 157.905 122.278C157.918 122.153 158.044 122.113 158.189 122.074C158.334 122.034 158.486 121.994 158.539 122.1Z" fill="#263238"/>
<path d="M144.256 124.331C145.12 124.331 145.82 123.63 145.82 122.767C145.82 121.903 145.12 121.202 144.256 121.202C143.392 121.202 142.692 121.903 142.692 122.767C142.692 123.63 143.392 124.331 144.256 124.331Z" fill="#263238"/>
<path d="M145.596 122.245C144.764 121.353 144.078 120.335 143.563 119.229C142.954 118.182 142.42 117.092 141.966 115.969C142.722 116.923 143.364 117.962 143.88 119.064C144.797 120.833 145.669 122.186 145.596 122.245Z" fill="#263238"/>
<path d="M144.844 114.246C144.929 114.279 144.593 115.091 143.715 115.652C143.473 115.846 143.192 115.986 142.892 116.063C142.592 116.141 142.278 116.153 141.973 116.101C141.973 116.002 142.745 115.883 143.53 115.368C144.316 114.853 144.758 114.18 144.844 114.246Z" fill="#263238"/>
<path d="M145.523 115.718C145.609 115.718 145.312 116.563 144.421 117.038C144.175 117.211 143.889 117.322 143.59 117.36C143.291 117.398 142.987 117.362 142.705 117.256C143.234 117.129 143.751 116.957 144.25 116.741C145.042 116.325 145.431 115.672 145.523 115.718Z" fill="#263238"/>
<path d="M136.145 121.856C136.025 122.011 135.862 122.127 135.677 122.19C135.491 122.253 135.291 122.259 135.102 122.208C134.913 122.157 134.743 122.051 134.614 121.903C134.485 121.755 134.403 121.573 134.378 121.378C134.353 121.184 134.386 120.987 134.474 120.811C134.561 120.636 134.698 120.49 134.868 120.393C135.039 120.296 135.234 120.251 135.429 120.265C135.625 120.278 135.812 120.35 135.967 120.47C136.174 120.63 136.309 120.866 136.342 121.126C136.375 121.386 136.304 121.648 136.145 121.856Z" fill="#263238"/>
<path d="M136.231 121.506C136.101 120.738 136.13 119.952 136.316 119.196C136.402 118.43 136.577 117.677 136.838 116.952C136.911 117.722 136.85 118.499 136.66 119.249C136.581 120.012 136.438 120.767 136.231 121.506Z" fill="#263238"/>
<path d="M139.841 118.081C139.363 118.258 138.845 118.297 138.345 118.195C137.846 118.092 137.385 117.851 137.016 117.5C136.792 117.256 136.752 117.031 136.792 117.018C136.831 117.005 136.943 117.157 137.181 117.322C137.488 117.542 137.833 117.705 138.197 117.804C139.069 118.048 139.828 117.975 139.841 118.081Z" fill="#263238"/>
<path d="M139.148 122.991C139.028 123.146 138.866 123.262 138.681 123.324C138.495 123.387 138.296 123.393 138.107 123.343C137.918 123.292 137.749 123.186 137.62 123.039C137.491 122.892 137.408 122.711 137.382 122.517C137.357 122.323 137.389 122.126 137.475 121.95C137.561 121.775 137.697 121.629 137.866 121.53C138.036 121.432 138.23 121.386 138.425 121.398C138.62 121.41 138.807 121.48 138.963 121.598C139.067 121.677 139.154 121.776 139.22 121.889C139.285 122.002 139.328 122.127 139.345 122.256C139.362 122.386 139.354 122.517 139.32 122.643C139.286 122.769 139.228 122.888 139.148 122.991Z" fill="#263238"/>
<path d="M139.26 122.641C139.126 121.874 139.155 121.087 139.346 120.331C139.428 119.563 139.603 118.807 139.867 118.081C139.94 118.853 139.877 119.633 139.682 120.384C139.608 121.147 139.467 121.903 139.26 122.641Z" fill="#263238"/>
<path d="M139.755 118.754C139.511 118.891 139.241 118.975 138.962 119C138.683 119.025 138.402 118.99 138.138 118.899C137.221 118.681 136.686 118.1 136.752 118.041C136.818 117.982 137.412 118.371 138.217 118.562C139.022 118.754 139.735 118.655 139.755 118.754Z" fill="#263238"/>
<path d="M192.885 167.402C192.766 167.413 192.647 167.413 192.529 167.402H191.519L187.79 167.264C184.642 167.132 180.299 166.927 175.501 166.676L173.039 166.551H172.874V166.393C172.874 162.195 172.913 158.473 172.927 155.753C172.927 154.433 172.966 153.384 172.979 152.599C172.979 152.255 172.979 151.978 172.979 151.747C172.981 151.647 172.992 151.548 173.012 151.45C173.041 151.546 173.052 151.647 173.045 151.747C173.045 151.978 173.045 152.255 173.078 152.599C173.078 153.384 173.078 154.447 173.125 155.753C173.125 158.479 173.164 162.195 173.184 166.393L173.026 166.221L175.481 166.346C180.279 166.597 184.628 166.841 187.77 167.006L191.492 167.257L192.502 167.343C192.632 167.341 192.762 167.361 192.885 167.402Z" fill="#263238"/>
<path d="M183.48 138.6C182.694 138.502 181.901 138.478 181.111 138.527C179.214 138.735 177.445 139.582 176.095 140.93C174.775 142.312 173.879 144.044 173.514 145.919C173.224 147.358 173.283 148.289 173.217 148.282C173.16 148.067 173.136 147.845 173.144 147.622C173.106 145.041 174.077 142.548 175.85 140.672C177.249 139.263 179.11 138.407 181.091 138.263C181.683 138.224 182.278 138.264 182.86 138.382C183.077 138.418 183.287 138.492 183.48 138.6Z" fill="#263238"/>
<path d="M147.035 148.843C147.134 149.478 147.174 150.121 147.154 150.764C147.154 151.952 147.193 153.622 147.154 155.45C147.114 157.179 147.081 158.75 147.048 160.03C147.048 160.763 147.048 161.291 147.048 161.812C147.048 161.218 147.048 160.624 147.048 159.793C147.048 158.473 146.982 156.941 146.949 155.173C146.916 153.404 146.949 151.873 146.949 150.691C146.921 150.074 146.95 149.455 147.035 148.843Z" fill="#263238"/>
<path d="M136.864 178.2C136.866 178.792 136.691 179.37 136.364 179.863C136.036 180.355 135.569 180.74 135.023 180.967C134.477 181.194 133.876 181.254 133.295 181.14C132.715 181.025 132.181 180.741 131.763 180.323C131.344 179.905 131.058 179.372 130.943 178.792C130.827 178.212 130.885 177.611 131.112 177.064C131.338 176.517 131.721 176.05 132.213 175.721C132.704 175.392 133.283 175.217 133.874 175.217C134.666 175.217 135.426 175.531 135.986 176.09C136.547 176.649 136.862 177.408 136.864 178.2Z" fill="#F5F5F5"/>
</g>
</svg>
