<svg width="30" height="31" viewBox="0 0 30 31" fill="none" xmlns="http://www.w3.org/2000/svg">
<path d="M30 15.6462C30 14.3878 29.8979 13.4694 29.6769 12.517H15.3061V18.1972H23.7414C23.5714 19.6088 22.6531 21.7347 20.6122 23.1632L20.5836 23.3534L25.1274 26.8734L25.4422 26.9048C28.3333 24.2347 30 20.3061 30 15.6462Z" fill="#4285F4"/>
<path d="M15.3061 30.6122C19.4387 30.6122 22.9081 29.2516 25.4422 26.9048L20.6122 23.1632C19.3197 24.0646 17.585 24.6938 15.3061 24.6938C11.2585 24.6938 7.82318 22.0238 6.59857 18.3333L6.41907 18.3486L1.6944 22.0051L1.63261 22.1768C4.14959 27.1768 9.31968 30.6122 15.3061 30.6122Z" fill="#34A853"/>
<path d="M6.59857 18.3333C6.27545 17.381 6.08845 16.3605 6.08845 15.3061C6.08845 14.2516 6.27545 13.2313 6.58157 12.2789L6.57302 12.0761L1.78913 8.36086L1.63261 8.43531C0.595245 10.5102 0 12.8401 0 15.3061C0 17.7721 0.595244 20.102 1.63261 22.1768L6.59857 18.3333Z" fill="#FBBC05"/>
<path d="M15.3061 5.91833C18.1802 5.91833 20.119 7.15982 21.2244 8.19731L25.5442 3.97959C22.8912 1.51361 19.4387 0 15.3061 0C9.31967 0 4.14959 3.43535 1.63261 8.43531L6.58157 12.2789C7.82318 8.58843 11.2585 5.91833 15.3061 5.91833Z" fill="#EB4335"/>
</svg>
