<svg width="25" height="25" viewBox="0 0 25 25" fill="none" xmlns="http://www.w3.org/2000/svg">
<path d="M2.34375 2.90479V22.0942C2.34388 22.1359 2.3563 22.1765 2.37944 22.2111C2.40259 22.2458 2.43544 22.2728 2.47388 22.2888C2.51231 22.3048 2.55461 22.3091 2.59548 22.3011C2.63635 22.2932 2.67397 22.2734 2.70361 22.2441L12.6953 12.5L2.70361 2.75489C2.67397 2.72566 2.63635 2.70583 2.59548 2.69789C2.55461 2.68996 2.51231 2.69426 2.47388 2.71027C2.43544 2.72628 2.40259 2.75328 2.37944 2.78788C2.3563 2.82249 2.34388 2.86316 2.34375 2.90479Z" fill="#24AB3A"/>
<path d="M16.8848 8.49609L4.35644 1.59374L4.34863 1.58935C4.13281 1.47216 3.92773 1.76415 4.10449 1.93408L13.9253 11.3247L16.8848 8.49609Z" fill="#24AB3A"/>
<path d="M4.10546 23.0659C3.92773 23.2358 4.1328 23.5278 4.3496 23.4106L4.35741 23.4062L16.8848 16.5039L13.9253 13.6743L4.10546 23.0659Z" fill="#24AB3A"/>
<path d="M21.9424 11.2793L18.4438 9.35254L15.1543 12.5L18.4438 15.646L21.9424 13.7207C22.894 13.1948 22.894 11.8052 21.9424 11.2793Z" fill="#24AB3A"/>
</svg>
